<svg width="114" height="67" viewBox="0 0 114 67" fill="none" xmlns="http://www.w3.org/2000/svg">
<g clip-path="url(#clip0_643_5341)">
<path d="M85.6694 18.3191H87.4326L86.551 16.0677L87.6045 13.3555L91.1309 21.8379H88.8167L88.1114 20.0652H84.9861L85.6694 18.3191Z" fill="white"/>
<path d="M85.5287 13.3555H57.3835V21.8379H70.299V27.4885H78.736V21.8379H82.0067L85.5287 13.3555Z" fill="white"/>
<path d="M82.6899 26.0742V31.7292H65.8205V26.0742H57.3835V45.8622H65.8205V40.2072H82.6899V45.8622H91.1225V26.0742H82.6899Z" fill="white"/>
<path d="M40.3858 35.2023C36.923 35.2023 33.5378 34.1699 30.6586 32.2357C27.7793 30.3014 25.5352 27.5522 24.21 24.3356C22.8848 21.1191 22.5381 17.5797 23.2136 14.165C23.8892 10.7504 25.5567 7.61378 28.0054 5.15194C30.454 2.6901 33.5737 1.01356 36.9701 0.334341C40.3664 -0.34488 43.8868 0.00372089 47.0861 1.33606C50.2854 2.6684 53.0198 4.92463 54.9437 7.81945C56.8676 10.7143 57.8945 14.1177 57.8945 17.5992C57.8886 22.2661 56.0421 26.7401 52.7599 30.04C49.4776 33.34 45.0276 35.1965 40.3858 35.2023ZM40.3858 8.47414C38.5907 8.47414 36.836 9.00932 35.3434 10.012C33.8509 11.0147 32.6876 12.4398 32.0006 14.1072C31.3137 15.7746 31.1339 17.6093 31.4841 19.3794C31.8343 21.1495 32.6987 22.7755 33.9681 24.0516C35.2374 25.3278 36.8546 26.1969 38.6152 26.549C40.3758 26.9011 42.2007 26.7204 43.8591 26.0297C45.5175 25.339 46.935 24.1695 47.9323 22.6688C48.9296 21.1682 49.4619 19.404 49.4619 17.5992C49.4584 15.1802 48.5011 12.8612 46.7997 11.1507C45.0984 9.44018 42.7919 8.47766 40.3858 8.47414Z" fill="white"/>
<path d="M34.7173 63.4258H37.631V64.0728H36.529V66.9136H35.8149V64.064H34.7173V63.4258Z" fill="white"/>
<path d="M39.1521 66.9147V63.418H41.7043V64.065H39.8706V64.7386H41.3473V65.3724H39.8706V66.2588H41.7616V66.9147H39.1521Z" fill="white"/>
<path d="M44.0137 63.4258L44.741 64.4717L45.4816 63.4258H46.3059L45.1598 65.0345L46.5086 66.9225H45.6755L44.7322 65.6195L43.7933 66.9136H42.969L44.3267 65.0301L43.1982 63.4258H44.0137Z" fill="white"/>
<path d="M47.915 66.9147V63.418H48.6291V64.7475H50.1984V63.418H50.9081V66.9147H50.1984V65.3813H48.6291V66.9147H47.915Z" fill="white"/>
<path d="M53.059 63.8906C53.4039 63.5525 53.8666 63.3633 54.3484 63.3633C54.8301 63.3633 55.2928 63.5525 55.6377 63.8906C55.9688 64.2366 56.1537 64.698 56.1537 65.1781C56.1537 65.6581 55.9688 66.1196 55.6377 66.4655C55.2944 66.8068 54.8311 66.9982 54.3484 66.9982C53.8656 66.9982 53.4023 66.8068 53.059 66.4655C52.731 66.118 52.5481 65.6572 52.5481 65.1781C52.5481 64.699 52.731 64.2381 53.059 63.8906ZM54.3506 66.3237C54.4943 66.3271 54.637 66.2996 54.7693 66.243C54.9016 66.1865 55.0203 66.1022 55.1176 65.9957C55.3165 65.7703 55.4263 65.4794 55.4263 65.1781C55.4263 64.8767 55.3165 64.5858 55.1176 64.3604C55.0174 64.258 54.8981 64.1767 54.7664 64.1212C54.6347 64.0657 54.4933 64.0371 54.3506 64.0371C54.2078 64.0371 54.0664 64.0657 53.9347 64.1212C53.803 64.1767 53.6837 64.258 53.5836 64.3604C53.3873 64.5871 53.2792 64.8775 53.2792 65.1781C53.2792 65.4786 53.3873 65.769 53.5836 65.9957C53.6808 66.1022 53.7995 66.1865 53.9318 66.243C54.0641 66.2996 54.2069 66.3271 54.3506 66.3237Z" fill="white"/>
<path d="M57.3438 66.2444C57.425 66.2706 57.5097 66.284 57.595 66.2843C57.7846 66.2843 57.908 66.1513 57.9741 65.8987C58.0612 65.4208 58.0996 64.9353 58.0887 64.4495V63.4258H60.544V66.9136H59.8343V64.064H58.7808V64.773C58.8044 65.3505 58.7099 65.9267 58.5031 66.466C58.4185 66.6152 58.2927 66.7365 58.1409 66.8152C57.9891 66.8939 57.8178 66.9265 57.6479 66.9092C57.5475 66.9142 57.4471 66.8992 57.3526 66.8649L57.3438 66.2444Z" fill="white"/>
<path d="M62.7084 63.8906C63.0534 63.5525 63.516 63.3633 63.9978 63.3633C64.4795 63.3633 64.9422 63.5525 65.2871 63.8906C65.6182 64.2366 65.8031 64.698 65.8031 65.1781C65.8031 65.6581 65.6182 66.1196 65.2871 66.4655C64.9438 66.8068 64.4805 66.9982 63.9978 66.9982C63.515 66.9982 63.0517 66.8068 62.7084 66.4655C62.3804 66.118 62.1975 65.6572 62.1975 65.1781C62.1975 64.699 62.3804 64.2381 62.7084 63.8906ZM64 66.3237C64.1436 66.3268 64.2863 66.2992 64.4185 66.2426C64.5508 66.1861 64.6695 66.1019 64.767 65.9957C64.9632 65.769 65.0714 65.4786 65.0714 65.1781C65.0714 64.8775 64.9632 64.5871 64.767 64.3604C64.6669 64.258 64.5475 64.1767 64.4158 64.1212C64.2841 64.0657 64.1428 64.0371 64 64.0371C63.8572 64.0371 63.7158 64.0657 63.5841 64.1212C63.4525 64.1767 63.3331 64.258 63.233 64.3604C63.0367 64.5871 62.9286 64.8775 62.9286 65.1781C62.9286 65.4786 63.0367 65.769 63.233 65.9957C63.3302 66.1022 63.449 66.1865 63.5812 66.243C63.7135 66.2996 63.8563 66.3271 64 66.3237Z" fill="white"/>
<path d="M67.4421 66.9147V63.418H69.9503V64.065H68.1562V66.9147H67.4421Z" fill="white"/>
<path d="M71.4934 66.9147V63.418H72.2075V65.6959L73.8914 63.418H74.4953V66.9147H73.7856V64.6234L72.0929 66.9147H71.4934Z" fill="white"/>
<path d="M76.2585 66.9147V63.418H76.9726V65.6959L78.6565 63.418H79.2736V66.9147H78.5639V64.6234L76.8713 66.9147H76.2585Z" fill="white"/>
<path d="M49.991 58.3374C49.0381 58.3152 48.1221 57.963 47.3976 57.3403C46.6731 56.7176 46.1845 55.8626 46.0144 54.9196C45.8444 53.9767 46.0032 53.0037 46.4641 52.1649C46.925 51.326 47.6597 50.6728 48.5441 50.3156C49.4286 49.9584 50.4085 49.919 51.3185 50.2041C52.2285 50.4892 53.0128 51.0813 53.5388 51.8804C54.0649 52.6796 54.3004 53.6368 54.2058 54.5903C54.1111 55.5439 53.6921 56.4354 53.0193 57.1143C52.6254 57.5166 52.1531 57.8329 51.6321 58.0434C51.111 58.2538 50.5523 58.3539 49.991 58.3374ZM49.991 56.4229C50.2729 56.4286 50.5528 56.3739 50.812 56.2623C51.0712 56.1508 51.3037 55.9849 51.4942 55.7758C51.8865 55.3206 52.1025 54.7384 52.1025 54.1361C52.1025 53.5337 51.8865 52.9515 51.4942 52.4963C51.3037 52.2873 51.0712 52.1214 50.812 52.0098C50.5528 51.8983 50.2729 51.8435 49.991 51.8493C49.7072 51.8433 49.4253 51.8979 49.1639 52.0094C48.9025 52.121 48.6676 52.2869 48.4747 52.4963C48.0907 52.9555 47.8802 53.5362 47.8802 54.1361C47.8802 54.736 48.0907 55.3166 48.4747 55.7758C48.6676 55.9853 48.9025 56.1512 49.1639 56.2627C49.4253 56.3742 49.7072 56.4288 49.991 56.4229Z" fill="white"/>
<path d="M56.8982 58.1724V51.9191H54.4871V50.0977H61.3856V51.9191H58.9656V58.1724H56.8982Z" fill="white"/>
<path d="M62.4795 58.1724V50.0977H64.5424V53.1999L67.1476 50.0977H69.6469L66.5349 53.8115L70.22 58.1724H67.7074L64.5601 54.5871V58.1724H62.4795Z" fill="white"/>
<path d="M70.9116 58.1735V50.0987H74.4953C75.2687 50.0546 76.0303 50.3046 76.6288 50.799C76.879 51.0329 77.0785 51.3161 77.215 51.6311C77.3514 51.946 77.4218 52.2858 77.4218 52.6293C77.4218 52.9728 77.3514 53.3126 77.215 53.6275C77.0785 53.9424 76.879 54.2257 76.6288 54.4596C76.0309 54.9556 75.2693 55.2072 74.4953 55.1643H72.979V58.1735H70.9116ZM72.979 53.4536H74.3455C74.9405 53.4536 75.3329 53.1567 75.3329 52.647C75.3329 52.1374 74.9538 51.8493 74.3455 51.8493H72.979V53.4536Z" fill="white"/>
<path d="M78.4624 58.1724V50.0977H80.5298V52.5883H81.7111C82.5612 52.5479 83.3958 52.8276 84.0518 53.3728C84.338 53.6233 84.5655 53.9344 84.7179 54.2838C84.8704 54.6332 84.9439 55.0123 84.9334 55.3937C84.9448 55.7732 84.8715 56.1506 84.719 56.498C84.5664 56.8454 84.3384 57.154 84.0518 57.4013C83.3902 57.9444 82.5507 58.2194 81.6979 58.1724H78.4624ZM80.5298 56.3997H81.5833C82.3635 56.3997 82.8484 55.9964 82.8484 55.3493C82.8484 54.7023 82.3635 54.2768 81.5833 54.2768H80.5298V56.3997ZM85.7621 58.1724V50.0977H87.8294V58.1724H85.7621Z" fill="white"/>
<path d="M91.3209 58.1724V51.9191H88.9097V50.0977H95.8082V51.9191H93.3838V58.1724H91.3209Z" fill="white"/>
<path d="M96.8965 58.1724V50.0977H98.9638V52.5883H100.145C100.995 52.5479 101.83 52.8276 102.486 53.3728C102.772 53.6233 103 53.9344 103.152 54.2838C103.304 54.6332 103.378 55.0123 103.367 55.3937C103.379 55.7732 103.306 56.1506 103.153 56.498C103 56.8454 102.773 57.154 102.486 57.4013C101.824 57.9444 100.985 58.2194 100.132 58.1724H96.8965ZM98.9638 56.3997H100.017C100.798 56.3997 101.282 55.9964 101.282 55.3493C101.282 54.7023 100.798 54.2768 100.017 54.2768H98.9638V56.3997ZM104.196 58.1724V50.0977H106.264V58.1724H104.196Z" fill="white"/>
<path d="M107.802 58.1724V50.0977H113.907V51.9191H109.865V53.0138H113.083V54.7865H109.865V56.3687H113.999V58.1901L107.802 58.1724Z" fill="white"/>
<path d="M0 58.3013V50.2266H2.06736V53.0984H5.09566V50.2266H7.16302V58.3013H5.09566V54.9509H2.06736V58.3057L0 58.3013Z" fill="white"/>
<path d="M12.9593 58.4634C11.8487 58.4634 10.7836 58.0198 9.99825 57.2303C9.21292 56.4407 8.77173 55.3698 8.77173 54.2532C8.77173 53.1366 9.21292 52.0657 9.99825 51.2761C10.7836 50.4865 11.8487 50.043 12.9593 50.043C14.07 50.043 15.1351 50.4865 15.9204 51.2761C16.7058 52.0657 17.147 53.1366 17.147 54.2532C17.147 55.3698 16.7058 56.4407 15.9204 57.2303C15.1351 58.0198 14.07 58.4634 12.9593 58.4634ZM12.9593 56.5489C13.2412 56.5546 13.5211 56.4999 13.7803 56.3883C14.0395 56.2767 14.2721 56.1109 14.4625 55.9018C14.8548 55.4466 15.0708 54.8644 15.0708 54.262C15.0708 53.6597 14.8548 53.0775 14.4625 52.6223C14.2718 52.4138 14.0391 52.2486 13.7799 52.1378C13.5207 52.027 13.2409 51.9731 12.9593 51.9797C12.6787 51.9754 12.4003 52.0304 12.1421 52.1411C11.884 52.2518 11.6518 52.4157 11.4606 52.6223C11.0767 53.0815 10.8662 53.6621 10.8662 54.262C10.8662 54.8619 11.0767 55.4426 11.4606 55.9018C11.6516 56.109 11.8836 56.2736 12.1418 56.385C12.3999 56.4965 12.6784 56.5523 12.9593 56.5489Z" fill="white"/>
<path d="M18.7515 58.3013V50.2266H22.6658C24.1381 50.2266 25.1695 50.9401 25.1695 52.2696C25.1792 52.5925 25.0973 52.9115 24.9334 53.1893C24.7695 53.4671 24.5303 53.6923 24.2438 53.8385C24.6636 53.948 25.0347 54.1962 25.2974 54.5431C25.6182 54.9525 25.7852 55.4625 25.769 55.9835C25.7776 56.3071 25.7103 56.6282 25.5724 56.9208C25.4346 57.2134 25.2301 57.4692 24.9756 57.6676C24.3794 58.1182 23.6441 58.3426 22.8994 58.3013H18.7515ZM20.8188 53.3155H22.3572C22.8641 53.3155 23.1859 53.0541 23.1859 52.6242C23.1859 52.1943 22.8641 51.9106 22.3572 51.9106H20.8188V53.3155ZM20.8188 56.5729H22.4806C23.111 56.5729 23.4901 56.2627 23.4901 55.7176C23.4901 55.1725 23.0889 54.8312 22.4806 54.8312H20.8188V56.5729Z" fill="white"/>
<path d="M27.2014 58.3013V50.2266H29.2688V52.735H30.4501C31.3002 52.6946 32.1348 52.9743 32.7908 53.5194C33.0773 53.7697 33.3049 54.0808 33.4574 54.4303C33.6098 54.7797 33.6833 55.1589 33.6724 55.5403C33.6838 55.9199 33.6105 56.2972 33.458 56.6446C33.3054 56.992 33.0775 57.3006 32.7908 57.5479C32.1312 58.0915 31.2929 58.3667 30.4413 58.319L27.2014 58.3013ZM29.2688 56.5286H30.3223C31.1025 56.5286 31.5874 56.1253 31.5874 55.4783C31.5874 54.8312 31.1025 54.4058 30.3223 54.4058H29.2688V56.5286ZM34.5011 58.3013V50.2266H36.5861V58.3013H34.5011Z" fill="white"/>
<path d="M38.3801 58.3013V50.2266H44.4852V52.048H40.4431V53.1427H43.6609V54.9154H40.4431V56.4976H44.5778V58.319L38.3801 58.3013Z" fill="white"/>
</g>
<defs>
<clipPath id="clip0_643_5341">
<rect width="114" height="67" fill="white"/>
</clipPath>
</defs>
</svg>
