<svg width="109" height="43" viewBox="0 0 109 43" fill="none" xmlns="http://www.w3.org/2000/svg">
<g id="pro-fit 1" clip-path="url(#clip0_643_5325)">
<path id="Vector" fill-rule="evenodd" clip-rule="evenodd" d="M35.8259 0.90625H57.9343C61.1184 0.90625 63.8819 2.20118 66.2049 4.79105C68.5279 7.38091 69.6894 10.2585 69.6894 13.4445C69.6894 15.8493 69.0686 18.0898 67.847 20.1658C66.5253 22.3446 64.8432 23.7217 62.7805 24.2973C64.703 25.2222 66.1248 26.4761 67.026 28.0793C67.807 29.477 68.2075 31.2036 68.2075 33.1974V35.2322L59.0557 35.2117V33.8757C59.0557 29.6825 57.2334 27.586 53.6087 27.586H47.0203V19.8575H54.8704C56.2121 19.8575 57.4136 19.3025 58.475 18.2131C59.5363 17.1238 60.077 15.8083 60.077 14.2872C60.077 12.6429 59.5163 11.3068 58.3949 10.238C57.2734 9.16916 55.9918 8.63474 54.5299 8.63474H45.0177V35.1912H35.8659V0.90625H35.8259Z" fill="white"/>
<path id="Vector_2" fill-rule="evenodd" clip-rule="evenodd" d="M0 0.90625H17.4424C22.2486 0.90625 26.2737 2.55061 29.5179 5.85989C32.7621 9.16916 34.3842 13.2595 34.3842 18.1309C34.3842 22.694 32.8422 26.6816 29.7782 30.0936C26.6943 33.5057 22.9495 35.2117 18.5038 35.2117H11.1543V27.4626H16.1007C18.5839 27.4626 20.6265 26.6816 22.1885 25.14C23.8907 23.4545 24.7518 21.1113 24.7518 18.1309C24.7518 15.3971 23.8707 13.1361 22.1284 11.348C20.3862 9.55969 18.3035 8.6553 15.9004 8.6553H9.15175V42.9607H0V0.90625Z" fill="white"/>
<path id="Vector_3" d="M80.4433 12.8877H84.4685V16.8958H86.5111V9.49618H90.5162V16.8958H93.1596V5.28251H97.1848V16.9163H108.98C108.72 11.8805 106.797 7.8107 103.233 4.70698C99.6279 1.56214 95.1021 0 89.6752 0C84.2682 0 79.7825 1.56214 76.1778 4.68643C72.5732 7.79016 70.6507 11.8805 70.3704 16.8958H80.4433V12.8877Z" fill="white"/>
<path id="Vector_4" d="M97.1848 30.8096H93.1596V19.1758H90.5162V26.5755H86.4911V19.1758H84.4485V23.1839H80.4233V19.1758H70.3503C70.5907 24.3144 72.5131 28.4253 76.1578 31.5291C79.7424 34.5711 84.2482 36.0922 89.6551 36.0922C95.0821 36.0922 99.5879 34.5711 103.152 31.5291C106.797 28.4459 108.72 24.335 108.96 19.1758H97.1648V30.8096H97.1848Z" fill="white"/>
<path id="Vector_5" fill-rule="evenodd" clip-rule="evenodd" d="M15.52 35.8047V36.5653H12.8165C12.1557 36.5653 11.6751 36.7091 11.3747 36.9969C11.0743 37.2847 10.9141 37.6752 10.9141 38.148V40.7994C10.9141 41.2928 11.0543 41.6627 11.3346 41.9299C11.6551 42.2383 12.1557 42.3822 12.8165 42.3822H15.52V42.9988H18.0633V42.3822H20.7868C21.4476 42.3822 21.9282 42.2383 22.2286 41.9505C22.529 41.6627 22.6892 41.2722 22.6892 40.7994V38.148C22.6892 37.6546 22.549 37.2847 22.2687 37.0175C21.9483 36.7091 21.4476 36.5653 20.7868 36.5653H18.0433V35.8047H15.52ZM13.4373 38.2302H15.52V40.7378H13.4373V38.2302ZM18.0433 38.2302H20.1259V40.7378H18.0433V38.2302ZM23.8707 36.6269H26.414V39.8951L29.9385 36.6269H32.5619V42.4027H30.0387V38.9701L26.3339 42.4027H23.8908V36.6269H23.8707ZM33.443 36.6269H41.0528V38.2096H38.5095V42.3822H35.9663V38.2096H33.443V36.6269ZM41.8739 36.6269H44.4171V38.4563H47.5011V36.6269H50.0444V42.4027H47.5011V40.2034H44.4171V42.4027H41.8739V36.6269ZM57.4339 38.744H54.3699V40.265H59.7168V38.2096C59.7168 37.7163 59.5766 37.3463 59.2963 37.0585C58.9758 36.7503 58.4752 36.6063 57.8143 36.6063H53.0883C52.4274 36.6063 51.9468 36.7503 51.6464 37.038C51.346 37.3258 51.1858 37.7163 51.1858 38.189V40.779C51.1858 41.2722 51.326 41.6422 51.6064 41.9299C51.9268 42.2383 52.4274 42.3822 53.0883 42.3822H59.7168V40.7994H53.7291V38.2302H57.4339V38.744ZM68.2277 38.2096V36.6269H62.7006C62.0398 36.6269 61.5592 36.7708 61.2588 37.0585C60.9584 37.3463 60.7982 37.7368 60.7982 38.2096V40.7994C60.7982 41.2928 60.9384 41.6627 61.2187 41.9505C61.5391 42.2589 62.0398 42.4027 62.7006 42.4027H68.2277V40.82H63.3414V38.2302H68.2277V38.2096Z" fill="white"/>
</g>
<defs>
<clipPath id="clip0_643_5325">
<rect width="109" height="43" fill="white"/>
</clipPath>
</defs>
</svg>
