<svg width="172" height="46" viewBox="0 0 172 46" fill="none" xmlns="http://www.w3.org/2000/svg">
<g clip-path="url(#clip0_643_5311)">
<path d="M42.5558 17.6012L39.8016 34.5119C39.6239 35.2884 39.1797 35.7198 38.3801 35.7198C38.0248 35.7198 37.7582 35.6335 37.5805 35.3747C37.4029 35.1159 37.314 34.857 37.4029 34.4256L40.157 17.5149C40.3347 16.7384 40.7789 16.307 41.5785 16.307C41.9338 16.307 42.2004 16.3933 42.3781 16.6521C42.6446 16.9109 42.6446 17.1698 42.5558 17.6012ZM42.1115 12.7695C37.7582 12.7695 35.0929 14.4088 34.3822 18.2051L31.8058 33.9942C31.3615 37.5317 33.7603 39.3436 37.9359 39.3436C42.2892 39.3436 44.9545 37.7905 45.5764 33.9942L48.1529 18.3777C48.7748 14.5814 46.4648 12.7695 42.1115 12.7695Z" fill="white"/>
<path d="M111.675 39.0856L116.917 6.64453H111.142L105.812 39.0856H111.675Z" fill="white"/>
<path d="M61.746 12.9429V12.7704C59.7026 12.5115 57.3927 12.9429 55.9712 14.6685L54.9051 13.0292H51.4402L47.1758 39.1718H52.9506L56.1489 19.759C56.5931 17.0843 59.1696 17.4294 60.9464 17.8608L61.746 12.9429ZM64.2336 6.64453L58.9031 39.0856H64.6779L70.0084 6.64453H64.2336Z" fill="white"/>
<path d="M78.8036 17.602L76.0495 34.5127C75.8718 35.2893 75.4276 35.7207 74.628 35.7207C74.2727 35.7207 74.0061 35.6344 73.8284 35.3755C73.6508 35.1167 73.5619 34.8579 73.6508 34.4265L76.4049 17.602C76.5826 16.8255 77.0268 16.3941 77.8264 16.3941C78.1818 16.3941 78.4483 16.4804 78.626 16.7392C78.8037 16.9118 78.8925 17.2569 78.8036 17.602ZM80.4917 6.64453L79.3367 13.892C78.5371 13.1155 77.3822 12.7704 75.8718 12.7704C72.7623 12.7704 71.252 14.3234 70.8078 17.3432L67.9648 34.8579C67.4318 37.8776 69.1198 39.4307 72.2293 39.4307C74.1838 39.4307 75.6053 38.8267 76.6714 37.5325L77.6487 39.1718H81.1136L86.4442 6.73081H80.4917V6.64453Z" fill="white"/>
<path d="M141.438 12.6836C136.996 12.6836 134.419 14.1503 133.709 18.1192L133.353 19.8448C132.909 22.2606 133.442 24.3313 135.397 25.8843L138.773 28.8178C139.395 29.3355 139.661 30.0257 139.572 30.716L138.95 34.426C138.773 35.2025 138.328 35.6339 137.529 35.6339C137.173 35.6339 136.907 35.5476 136.729 35.2888C136.552 35.0299 136.463 34.7711 136.552 34.3397L137.262 29.7669H131.754L131.043 33.822C130.51 37.4458 132.998 39.2576 136.996 39.2576C141.704 39.2576 144.103 37.7046 144.814 33.9083L145.258 31.5788C145.702 29.1629 145.347 26.8334 143.392 25.3667L139.839 22.3469C139.128 21.8292 138.861 21.2252 139.039 20.3625L139.483 17.5152C139.661 16.7387 140.105 16.3073 140.905 16.3073C141.26 16.3073 141.527 16.3936 141.704 16.6524C141.882 16.9113 141.971 17.1701 141.882 17.6015L141.26 21.3978H146.946L147.479 18.378C148.101 15.0994 146.413 12.6836 141.438 12.6836Z" fill="white"/>
<path d="M157.607 12.6836C153.165 12.6836 150.589 14.1503 149.878 18.1192L149.523 19.8448C149.078 22.2606 149.612 24.3313 151.566 25.8843L154.942 28.8178C155.564 29.3355 155.831 30.0257 155.742 30.716L155.12 34.426C154.942 35.2025 154.498 35.6339 153.698 35.6339C153.343 35.6339 153.076 35.5476 152.899 35.2888C152.721 35.0299 152.632 34.7711 152.721 34.3397L153.432 29.7669H147.923L147.213 33.822C146.68 37.4458 149.167 39.2576 153.165 39.2576C157.874 39.2576 160.273 37.7046 160.983 33.9083L161.428 31.5788C161.872 29.1629 161.516 26.8334 159.562 25.3667L156.008 22.3469C155.297 21.8292 155.031 21.2252 155.209 20.3625L155.653 17.5152C155.831 16.7387 156.275 16.3073 157.074 16.3073C157.43 16.3073 157.696 16.3936 157.874 16.6524C158.052 16.9113 158.14 17.1701 158.052 17.6015L157.43 21.3978H163.116L163.649 18.378C164.271 15.0994 162.583 12.6836 157.607 12.6836Z" fill="white"/>
<path d="M122.87 34.5119C122.692 35.2884 122.248 35.7198 121.448 35.7198C121.093 35.7198 120.826 35.6336 120.649 35.3747C120.471 35.2022 120.471 34.9433 120.471 34.6845C120.471 34.5982 120.471 34.5119 120.471 34.4256L121.182 29.8528C121.359 28.9038 121.804 28.2998 122.692 27.7821L124.025 27.0919L122.87 34.5119ZM125.269 12.7695C120.915 12.7695 118.161 14.4088 117.45 18.2051L116.917 21.4837H122.692L123.314 17.6012C123.492 16.8247 123.936 16.3933 124.736 16.3933C125.091 16.3933 125.357 16.4795 125.535 16.7384C125.713 16.9972 125.802 17.2561 125.713 17.6875L124.913 22.6917L119.583 25.4526C117.095 26.7468 115.851 28.3861 115.407 31.0607L114.785 34.857C114.252 37.8768 115.94 39.4298 119.05 39.4298C121.004 39.4298 122.426 38.8259 123.492 37.5317L124.469 39.171H127.934L131.31 18.3777C131.932 14.4951 129.267 12.7695 125.269 12.7695Z" fill="white"/>
<path d="M101.548 6.38281C97.1943 6.38281 94.1736 8.1084 93.5517 11.9047L89.998 33.5608C89.3761 37.2708 91.5972 39.3415 96.6613 39.3415C100.837 39.3415 103.68 37.6159 104.391 33.8196L105.723 26.2271H99.8596V26.3133L98.527 34.4236C98.4381 35.2864 97.9051 35.7178 97.1055 35.7178C96.7501 35.7178 96.3947 35.6315 96.217 35.3727C96.0393 35.1138 95.9505 34.7687 96.0393 34.3373L99.8596 11.3007C100.037 10.4379 100.481 10.0065 101.281 10.0065C101.636 10.0065 101.992 10.0928 102.17 10.3517C102.347 10.6105 102.436 10.9556 102.347 11.387L101.192 18.1168H107.056L108.033 12.1635C108.477 8.19468 105.901 6.38281 101.548 6.38281Z" fill="white"/>
<path d="M167.647 19.154L165.07 34.8568C164.448 38.4806 163.56 43.0534 154.764 43.0534H96.5723C92.3078 43.0534 89.376 42.1906 87.688 40.1199C86.0888 38.2217 85.6446 36.3236 85.6446 36.3236L84.4897 43.1397H37.9359C33.4938 43.1397 31.0062 41.9317 29.7624 40.5513C29.7624 40.5513 29.7624 40.465 29.6736 40.465L28.874 43.1397H2.57645V2.5021H41.4897L39.4463 8.88677H59.6136L60.6798 2.5021H91.1529L90.2645 8.62793L91.7748 6.90234C94.2624 4.05513 97.8161 2.5021 101.548 2.5021H121.804L120.738 9.23189L121.715 9.05933C122.781 8.80049 124.025 8.71421 125.269 8.71421C128.289 8.71421 130.777 9.49072 132.643 10.9575L133.087 11.3026L133.531 10.9575C135.574 9.49072 138.24 8.71421 141.527 8.71421C144.636 8.71421 147.124 9.40444 148.901 10.8712L149.256 11.2163L149.7 10.8712C151.655 9.40444 154.409 8.71421 157.696 8.71421C161.517 8.71421 164.271 9.74956 166.136 11.9065C167.202 13.2007 168.357 15.5303 167.647 19.154ZM0 45.5555H30.7397L31.095 44.5201C32.7831 45.3829 35.0041 45.5555 37.9359 45.5555H86.7996L87.2438 43.0534C89.4649 44.779 92.4855 45.5555 96.6612 45.5555H154.853C165.87 45.5555 167.114 38.912 167.736 35.2882L170.312 19.5854C171.2 15.0126 169.601 11.9928 168.091 10.2672C165.781 7.5063 162.227 6.21211 157.696 6.12583C154.409 6.12583 151.655 6.81607 149.345 8.02398C147.213 6.72979 144.636 6.12583 141.527 6.12583C138.24 6.12583 135.397 6.81606 133.087 8.11025C130.955 6.81606 128.378 6.12583 125.269 6.12583C124.824 6.12583 124.291 6.12583 123.847 6.21211L124.824 0H107.056H101.548C98.8822 0 96.2169 0.690234 93.907 1.98442L94.1735 0H58.5475L57.4814 6.38467H43L44.9545 0H0V45.5555Z" fill="white"/>
<path d="M167.647 19.154L165.07 34.8568C164.448 38.4806 163.56 43.0534 154.764 43.0534H96.5723C92.3078 43.0534 89.376 42.1906 87.688 40.1199C86.0888 38.2217 85.6446 36.3236 85.6446 36.3236L84.4897 43.1397H37.9359C33.4938 43.1397 31.0062 41.9317 29.7624 40.5513C29.7624 40.5513 29.7624 40.465 29.6736 40.465L28.874 43.1397H2.57645V2.5021H41.4897L39.4463 8.88677H59.6136L60.6798 2.5021H91.1529L90.2645 8.62793L91.7748 6.90234C94.2624 4.05513 97.8161 2.5021 101.548 2.5021H121.804L120.738 9.23189L121.715 9.05933C122.781 8.80049 124.025 8.71421 125.269 8.71421C128.289 8.71421 130.777 9.49072 132.643 10.9575L133.087 11.3026L133.531 10.9575C135.574 9.49072 138.24 8.71421 141.527 8.71421C144.636 8.71421 147.124 9.40444 148.901 10.8712L149.256 11.2163L149.7 10.8712C151.655 9.40444 154.409 8.71421 157.696 8.71421C161.517 8.71421 164.271 9.74956 166.136 11.9065C167.202 13.2007 168.357 15.5303 167.647 19.154ZM0 45.5555H30.7397L31.095 44.5201C32.7831 45.3829 35.0041 45.5555 37.9359 45.5555H86.7996L87.2438 43.0534C89.4649 44.779 92.4855 45.5555 96.6612 45.5555H154.853C165.87 45.5555 167.114 38.912 167.736 35.2882L170.312 19.5854C171.2 15.0126 169.601 11.9928 168.091 10.2672C165.781 7.5063 162.227 6.21211 157.696 6.12583C154.409 6.12583 151.655 6.81607 149.345 8.02398C147.213 6.72979 144.636 6.12583 141.527 6.12583C138.24 6.12583 135.397 6.81606 133.087 8.11025C130.955 6.81606 128.378 6.12583 125.269 6.12583C124.824 6.12583 124.291 6.12583 123.847 6.21211L124.824 0H107.056H101.548C98.8822 0 96.2169 0.690234 93.907 1.98442L94.1735 0H58.5475L57.4814 6.38467H43L44.9545 0H0V45.5555Z" fill="white"/>
<path d="M25.4092 38.9957L35.6262 6.55469H29.8514L24.5208 22.9478H24.1654L24.2543 6.55469H17.8576L12.7935 23.034H12.4381V6.55469H6.7522V38.9957H12.8824L18.5683 20.3594H18.9237L19.2791 38.9957H25.4092Z" fill="white"/>
</g>
<defs>
<clipPath id="clip0_643_5311">
<rect width="172" height="46" fill="white"/>
</clipPath>
</defs>
</svg>
