<svg width="30" height="30" viewBox="0 0 30 30" fill="none" xmlns="http://www.w3.org/2000/svg">
<g clip-path="url(#clip0_652_4787)">
<path d="M2.86017 2.8125H8.10381C8.89632 2.8125 9.5339 2.18555 9.5339 1.40625C9.5339 0.626953 8.89632 0 8.10381 0H1.90678C0.852092 0 0 0.837891 0 1.875V7.96875C0 8.74805 0.637579 9.375 1.43008 9.375C2.22259 9.375 2.86017 8.74805 2.86017 7.96875V2.8125ZM21.8962 2.8125H27.1398V7.96875C27.1398 8.74805 27.7774 9.375 28.5699 9.375C29.3624 9.375 30 8.74805 30 7.96875V1.875C30 0.837891 29.1479 0 28.0932 0H21.8962C21.1037 0 20.4661 0.626953 20.4661 1.40625C20.4661 2.18555 21.1037 2.8125 21.8962 2.8125ZM2.86017 27.1875V22.0312C2.86017 21.252 2.22259 20.625 1.43008 20.625C0.637579 20.625 0 21.252 0 22.0312V28.125C0 29.1621 0.852092 30 1.90678 30H8.10381C8.89632 30 9.5339 29.373 9.5339 28.5938C9.5339 27.8145 8.89632 27.1875 8.10381 27.1875H2.86017ZM21.8962 27.1875C21.1037 27.1875 20.4661 27.8145 20.4661 28.5938C20.4661 29.373 21.1037 30 21.8962 30H28.0932C29.1479 30 30 29.1621 30 28.125V22.0312C30 21.252 29.3624 20.625 28.5699 20.625C27.7774 20.625 27.1398 21.252 27.1398 22.0312V27.1875H21.8962Z" fill="currentColor"/>
<path d="M8.82079 13.3287C8.53481 13.4418 8.22829 13.5 7.91875 13.5C7.60921 13.5 7.30269 13.4418 7.01671 13.3287C6.73073 13.2157 6.47088 13.0499 6.252 12.841C6.03312 12.6321 5.85949 12.384 5.74103 12.111C5.62258 11.8381 5.56161 11.5455 5.56161 11.25C5.56161 10.9545 5.62258 10.6619 5.74103 10.389C5.85949 10.116 6.03312 9.86794 6.252 9.65901C6.47088 9.45008 6.73073 9.28434 7.01671 9.17127C7.30269 9.0582 7.60921 9 7.91875 9C8.22829 9 8.53481 9.0582 8.82079 9.17127C9.10677 9.28434 9.36662 9.45008 9.5855 9.65901C9.80438 9.86794 9.97801 10.116 10.0965 10.389C10.2149 10.6619 10.2759 10.9545 10.2759 11.25C10.2759 11.5455 10.2149 11.8381 10.0965 12.111C9.97801 12.384 9.80438 12.6321 9.5855 12.841C9.36662 13.0499 9.10677 13.2157 8.82079 13.3287Z" fill="currentColor"/>
<path d="M4 17.4984C4 16.1203 5.17366 15 6.61741 15H10.0254C10.4723 15 10.8996 15.1078 11.2679 15.3C9.67679 15.8578 8.45893 17.1516 8.06607 18.75H5.31116C4.58438 18.75 4 18.1875 4 17.4984Z" fill="currentColor"/>
<path d="M26 17.4984C26 18.1922 25.4107 18.75 24.6888 18.75H21.9339C21.5411 17.1516 20.3232 15.8578 18.7321 15.3C19.1004 15.1078 19.5228 15 19.9746 15H23.3826C24.8263 15 26 16.1156 26 17.4984Z" fill="currentColor"/>
<path d="M17.5536 16.5469C18.8304 16.7531 19.8763 17.6109 20.2987 18.75C20.4312 19.1016 20.5 19.4812 20.5 19.875C20.5 20.4984 19.9746 21 19.3214 21H10.6786C10.0254 21 9.5 20.4984 9.5 19.875C9.5 19.4812 9.56875 19.1016 9.70134 18.75C10.1237 17.6109 11.1696 16.7531 12.4464 16.5469C12.6379 16.5141 12.8344 16.5 13.0357 16.5H16.9643C17.1656 16.5 17.3621 16.5141 17.5536 16.5469Z" fill="currentColor"/>
<path d="M22.9735 13.3287C22.6875 13.4418 22.381 13.5 22.0714 13.5C21.7619 13.5 21.4554 13.4418 21.1694 13.3287C20.8834 13.2157 20.6236 13.0499 20.4047 12.841C20.1858 12.6321 20.0122 12.384 19.8937 12.111C19.7753 11.8381 19.7143 11.5455 19.7143 11.25C19.7143 10.9545 19.7753 10.6619 19.8937 10.389C20.0122 10.116 20.1858 9.86794 20.4047 9.65901C20.6236 9.45008 20.8834 9.28434 21.1694 9.17127C21.4554 9.0582 21.7619 9 22.0714 9C22.381 9 22.6875 9.0582 22.9735 9.17127C23.2595 9.28434 23.5193 9.45008 23.7382 9.65901C23.9571 9.86794 24.1307 10.116 24.2491 10.389C24.3676 10.6619 24.4286 10.9545 24.4286 11.25C24.4286 11.5455 24.3676 11.8381 24.2491 12.111C24.1307 12.384 23.9571 12.6321 23.7382 12.841C23.5193 13.0499 23.2595 13.2157 22.9735 13.3287Z" fill="currentColor"/>
<path d="M17.2223 9.87868C17.8117 10.4413 18.1429 11.2044 18.1429 12C18.1429 12.7956 17.8117 13.5587 17.2223 14.1213C16.6329 14.6839 15.8335 15 15 15C14.1665 15 13.3671 14.6839 12.7777 14.1213C12.1883 13.5587 11.8571 12.7956 11.8571 12C11.8571 11.2044 12.1883 10.4413 12.7777 9.87868C13.3671 9.31607 14.1665 9 15 9C15.8335 9 16.6329 9.31607 17.2223 9.87868Z" fill="currentColor"/>
</g>
<defs>
<clipPath id="clip0_652_4787">
<rect width="30" height="30" fill="white"/>
</clipPath>
</defs>
</svg>
