<svg width="30" height="28" viewBox="0 0 30 28" fill="none" xmlns="http://www.w3.org/2000/svg">
<path d="M1.40625 0.875C2.18555 0.875 2.8125 1.50195 2.8125 2.28125V22.9062C2.8125 23.6855 3.43945 24.3125 4.21875 24.3125H28.5938C29.373 24.3125 30 24.9395 30 25.7188C30 26.498 29.373 27.125 28.5938 27.125H4.21875C1.88672 27.125 0 25.2383 0 22.9062V2.28125C0 1.50195 0.626953 0.875 1.40625 0.875ZM7.5 6.96875C7.5 6.18945 8.12695 5.5625 8.90625 5.5625H21.0938C21.873 5.5625 22.5 6.18945 22.5 6.96875C22.5 7.74805 21.873 8.375 21.0938 8.375H8.90625C8.12695 8.375 7.5 7.74805 7.5 6.96875ZM8.90625 11.1875H17.3438C18.123 11.1875 18.75 11.8145 18.75 12.5938C18.75 13.373 18.123 14 17.3438 14H8.90625C8.12695 14 7.5 13.373 7.5 12.5938C7.5 11.8145 8.12695 11.1875 8.90625 11.1875ZM8.90625 16.8125H24.8438C25.623 16.8125 26.25 17.4395 26.25 18.2188C26.25 18.998 25.623 19.625 24.8438 19.625H8.90625C8.12695 19.625 7.5 18.998 7.5 18.2188C7.5 17.4395 8.12695 16.8125 8.90625 16.8125Z" fill="currentColor"/>
</svg>
