<svg width="26" height="26" viewBox="0 0 26 26" fill="none" xmlns="http://www.w3.org/2000/svg">
<path opacity="0.4" d="M18.0944 0.5H22.3269C24.0797 0.5 25.5 1.93231 25.5 3.69995V7.96816C25.5 9.7358 24.0797 11.1681 22.3269 11.1681H18.0944C16.3416 11.1681 14.9213 9.7358 14.9213 7.96816V3.69995C14.9213 1.93231 16.3416 0.5 18.0944 0.5Z" fill="#B1EC52"/>
<path fill-rule="evenodd" clip-rule="evenodd" d="M3.67316 0.5H7.90561C9.65845 0.5 11.0788 1.93231 11.0788 3.69995V7.96816C11.0788 9.7358 9.65845 11.1681 7.90561 11.1681H3.67316C1.92032 11.1681 0.5 9.7358 0.5 7.96816V3.69995C0.5 1.93231 1.92032 0.5 3.67316 0.5ZM3.67316 14.8319H7.90561C9.65845 14.8319 11.0788 16.2642 11.0788 18.0318V22.3C11.0788 24.0665 9.65845 25.5 7.90561 25.5H3.67316C1.92032 25.5 0.5 24.0665 0.5 22.3V18.0318C0.5 16.2642 1.92032 14.8319 3.67316 14.8319ZM22.3268 14.8319H18.0944C16.3416 14.8319 14.9212 16.2642 14.9212 18.0318V22.3C14.9212 24.0665 16.3416 25.5 18.0944 25.5H22.3268C24.0797 25.5 25.5 24.0665 25.5 22.3V18.0318C25.5 16.2642 24.0797 14.8319 22.3268 14.8319Z" fill="#B1EC52"/>
</svg>
