<svg width="20" height="20" viewBox="0 0 20 20" fill="none" xmlns="http://www.w3.org/2000/svg">
<path opacity="0.4" d="M12.4183 3.49171C11.9423 3.40377 11.5051 3.70756 11.4145 4.17225C11.3238 4.63693 11.6286 5.09061 12.0917 5.18155C13.4859 5.45337 14.5625 6.53262 14.8354 7.93166V7.93266C14.9131 8.33539 15.2676 8.62818 15.6759 8.62818C15.7307 8.62818 15.7855 8.62319 15.8412 8.6132C16.3043 8.52026 16.6091 8.06757 16.5185 7.60189C16.1111 5.51232 14.5027 3.89843 12.4183 3.49171Z" fill="white"/>
<path opacity="0.4" d="M12.3561 0.00792976C12.133 -0.0240483 11.9089 0.0419064 11.7307 0.183809C11.5474 0.32771 11.4329 0.535567 11.408 0.768408C11.3552 1.23908 11.6948 1.66479 12.1649 1.71776C15.4065 2.07951 17.9262 4.60477 18.2907 7.85654C18.3395 8.29224 18.705 8.62101 19.1412 8.62101C19.174 8.62101 19.2059 8.61902 19.2388 8.61502C19.4668 8.59004 19.67 8.47711 19.8134 8.29724C19.9558 8.11736 20.0206 7.89351 19.9947 7.66467C19.5405 3.60746 16.4005 0.45862 12.3561 0.00792976Z" fill="white"/>
<path d="M15.6049 12.6737C14.9566 12.5358 14.4437 12.8356 13.9896 13.0974C13.5245 13.3672 12.6391 14.0817 12.1332 13.8978C9.53789 12.8346 7.09693 10.5711 6.04028 7.97691C5.85405 7.46026 6.56811 6.57387 6.83601 6.10619C7.09793 5.6525 7.39272 5.13586 7.25827 4.4863C7.13677 3.90171 5.56524 1.91007 5.00952 1.36545C4.64204 1.00569 4.26758 0.80783 3.88216 0.774853C2.43313 0.713895 0.814786 2.63957 0.530954 3.10026C-0.181116 4.08258 -0.176136 5.38968 0.542905 6.9746C2.27577 11.2317 8.8298 17.6563 13.1201 19.447C13.9109 19.8158 14.6359 20.0007 15.2862 20.0007C15.9226 20.0007 16.4893 19.8238 16.9763 19.473C17.3428 19.2622 19.3565 17.5703 19.3027 16.0883C19.2718 15.7106 19.0736 15.3329 18.7171 14.9671C18.1734 14.4085 16.1875 12.7966 15.6049 12.6737Z" fill="white"/>
</svg>
