<svg width="12" height="11" viewBox="0 0 12 11" fill="none" xmlns="http://www.w3.org/2000/svg">
<path d="M4.6875 10.9531C5.09896 10.9531 5.41406 10.7917 5.63281 10.4688L10.9844 2.24219C11.0625 2.11719 11.1198 2 11.1562 1.89062C11.1927 1.78125 11.2109 1.67448 11.2109 1.57031C11.2109 1.29427 11.1172 1.06771 10.9297 0.890625C10.7474 0.708333 10.5156 0.617188 10.2344 0.617188C10.0417 0.617188 9.8776 0.65625 9.74219 0.734375C9.61198 0.8125 9.48958 0.945312 9.375 1.13281L4.66406 8.59375L2.25 5.53906C2.03646 5.27865 1.77344 5.14844 1.46094 5.14844C1.17448 5.14844 0.9375 5.23958 0.75 5.42188C0.567708 5.59896 0.476562 5.82812 0.476562 6.10938C0.476562 6.23438 0.497396 6.35417 0.539062 6.46875C0.585938 6.57812 0.661458 6.69531 0.765625 6.82031L3.76562 10.5C4.01562 10.8021 4.32292 10.9531 4.6875 10.9531Z" fill="white"/>
</svg>
