<svg width="62" height="60" viewBox="0 0 62 60" fill="none" xmlns="http://www.w3.org/2000/svg">
<path d="M25.3091 28.8626L29.4296 31.894L33.7545 18.2959H39.9735L34.1368 1.10605L25.3091 28.8626Z" fill="#B1EC52"/>
<path d="M44.9722 30.5635L46.8945 36.5724L61.1839 25.6215L32.4694 25.6691L30.9054 30.5867L44.9722 30.5635Z" fill="#B1EC52"/>
<path d="M36.9534 45.1946L31.9216 48.908L46.5903 59.3295L37.6717 31.6015L32.5845 31.6101L36.9534 45.1946Z" fill="#B1EC52"/>
<path d="M32.1461 33.5494L20.7799 41.9684H20.7793L15.7481 38.2544L10.5245 55.6474L33.727 38.4623L32.1461 33.5494Z" fill="#B1EC52"/>
<path d="M18.8014 25.344L20.7231 19.3346L2.82652 19.6632L26.0844 36.7702L30.1947 33.7249L18.8014 25.344Z" fill="#B1EC52"/>
<path d="M24.4489 28.2298L33.427 0H28.3447L19.99 24.9516L24.4489 28.2298Z" fill="#B1EC52"/>
<path d="M34.4882 19.3223L32.7961 24.6435L62 24.5947L60.4299 19.6838L34.4882 19.3223Z" fill="#B1EC52"/>
<path d="M44.2382 31.5905L38.7338 31.5991L47.8044 59.7991L51.916 56.7648L44.2382 31.5905Z" fill="#B1EC52"/>
<path d="M35.7654 44.8036L34.056 39.4872L10.458 56.9663L14.5702 60L35.7654 44.8036Z" fill="#B1EC52"/>
<path d="M0 24.9169L20.7773 40.6998L25.226 37.4047L1.57114 20.007L0 24.9169Z" fill="#B1EC52"/>
</svg>
