<svg width="180" height="40" viewBox="0 0 180 40" fill="none" xmlns="http://www.w3.org/2000/svg">
<g clip-path="url(#clip0_599_3590)">
<path d="M61.0483 13.1328H58.1475C57.3586 13.1328 57.0278 13.4121 56.8752 14.2245L55.8828 19.8347H50.9717L51.9641 14.2245C52.1168 13.4121 51.8878 13.1328 51.0735 13.1328H48.1981C47.3838 13.1328 47.0785 13.4121 46.9258 14.2245L44.1014 30.116C43.9741 30.9029 44.1776 31.1822 44.9919 31.1822H47.8673C48.6815 31.1822 49.0124 30.9029 49.1396 30.116L50.1829 24.2772H55.094L54.0762 30.116C53.9235 30.9029 54.1524 31.1822 54.9668 31.1822H57.8422C58.6564 31.1822 58.9618 30.9029 59.1145 30.116L61.9135 14.2245C62.0662 13.4121 61.8372 13.1328 61.0483 13.1328Z" fill="#112D38"/>
<path d="M76.4426 13.1575H65.7807C64.9664 13.1575 64.6611 13.4367 64.5084 14.2237L61.7093 30.1153C61.5566 30.9022 61.7857 31.1815 62.6 31.1815H73.4654C74.2797 31.1815 74.6104 30.9022 74.7377 30.1153L75.1448 27.8051C75.2975 26.9928 75.0684 26.7389 74.2797 26.7389H67.3328L67.7654 24.3019H73.1346C73.9488 24.3019 74.2541 24.0227 74.4068 23.2103L74.814 20.9256C74.9412 20.1386 74.7377 19.8593 73.9234 19.8593H68.5543L68.9615 17.6H75.6791C76.468 17.6 76.7988 17.3208 76.9515 16.5085L77.3586 14.2237C77.4858 13.4367 77.2568 13.1575 76.4426 13.1575Z" fill="#112D38"/>
<path d="M87.6181 12.0421C89.883 12.0421 91.6387 11.0774 92.6061 9.3512C92.8859 8.8689 92.7835 8.64039 92.3254 8.46271L90.6721 7.80268C90.1629 7.65036 90.0102 7.70114 89.6792 8.13269C89.2722 8.6912 88.8141 8.97043 88.1777 8.97043C87.5166 8.97043 87.1344 8.6912 86.9058 8.13269C86.7275 7.70114 86.6004 7.62498 86.0152 7.82806L84.2085 8.46271C83.6996 8.66583 83.5215 8.8689 83.6232 9.3512C83.954 11.0774 85.4044 12.0421 87.6181 12.0421ZM93.9795 13.1337H90.9264C90.3411 13.1337 90.0613 13.286 89.7815 13.6414L85.2518 19.5563C83.8269 21.4095 83.3433 22.2726 81.8929 24.8366H81.7148C82.9871 22.1457 83.267 21.3333 83.7759 18.5663L84.5393 14.2253C84.6665 13.4383 84.4375 13.1591 83.6232 13.1591H80.7478C79.9336 13.1591 79.6282 13.4383 79.501 14.2253L76.6765 30.1168C76.5493 30.9038 76.7529 31.183 77.5671 31.183H80.6461C81.2314 31.183 81.5113 31.0561 81.8166 30.6753L86.3718 24.7097C87.7708 22.8565 88.2545 22.0949 89.6792 19.4801H89.8575C88.687 22.2472 88.3057 22.9326 87.822 25.7759L87.0329 30.0915C86.9058 30.9038 87.1097 31.183 87.9235 31.183H90.7993C91.5875 31.183 91.9185 30.9038 92.0712 30.1168L94.8702 14.2253C95.0229 13.413 94.7942 13.1337 93.9795 13.1337Z" fill="#112D38"/>
<path d="M105.733 13.1572H98.7107C97.896 13.1572 97.5906 13.4365 97.4379 14.2234L94.639 30.115C94.4863 30.9019 94.7158 31.1812 95.5296 31.1812H98.4053C99.2192 31.1812 99.5246 30.9019 99.6773 30.115L100.441 25.774H103.545C107.515 25.774 110.39 23.8954 111.103 19.8845C111.789 15.8481 109.704 13.1572 105.733 13.1572ZM103.723 21.3315H101.23L101.891 17.5998H104.385C105.606 17.5998 106.166 18.3613 105.963 19.4783C105.759 20.5953 104.919 21.3315 103.723 21.3315Z" fill="#112D38"/>
<path d="M112.548 19.6306L111.734 24.2254C110.996 28.6171 113.337 31.5619 118.35 31.5619C123.388 31.5619 126.518 29.1502 127.307 24.7839L128.095 20.189C128.859 15.7973 126.518 12.7764 121.505 12.7764C116.467 12.7764 113.311 15.2642 112.548 19.6306ZM123.159 19.6559L122.269 24.6823C121.989 26.2816 120.818 27.1194 119.062 27.1194C117.281 27.1194 116.416 26.2816 116.695 24.6823L117.586 19.6559C117.866 18.0566 119.037 17.2189 120.818 17.2189C122.574 17.2189 123.439 18.0566 123.159 19.6559Z" fill="#112D38"/>
<path d="M145.58 13.1575H134.714C133.9 13.1575 133.594 13.4367 133.442 14.2237L132.424 20.0117C131.585 24.7842 130.134 26.0535 128.455 26.942C127.665 27.3482 127.411 27.7036 127.665 28.4144L128.709 30.8514C128.964 31.5622 129.269 31.7399 130.058 31.3592C133.34 29.8614 136.063 27.3736 137.386 19.9863L137.793 17.6H140.846L138.633 30.1153C138.506 30.9022 138.709 31.1815 139.523 31.1815H142.399C143.214 31.1815 143.544 30.9022 143.671 30.1153L146.496 14.2237C146.623 13.4367 146.394 13.1575 145.58 13.1575Z" fill="#112D38"/>
<path d="M162.373 30.1406L159.344 13.9953C159.217 13.3352 158.886 13.1575 158.148 13.1575H155.273C154.535 13.1575 154.179 13.3098 153.797 14.046L145.094 30.1406C144.713 30.8261 144.789 31.1815 145.578 31.1815H148.377C149.649 31.1815 150.031 30.9022 150.413 30.1153L151.303 28.2874H156.825L157.079 30.1153C157.156 30.9022 157.487 31.1815 158.785 31.1815H161.431C162.22 31.1815 162.5 30.8261 162.373 30.1406ZM155.96 21.3318L156.367 24.3019H153.212L154.663 21.3063C155.476 19.6055 155.807 17.7777 155.807 17.7777H156.036C156.036 17.7777 155.756 19.6055 155.96 21.3318Z" fill="#112D38"/>
<path d="M179.091 13.1328H167.869C167.055 13.1328 166.75 13.4121 166.597 14.2245L163.772 30.1668C163.645 30.9283 163.874 31.1822 164.637 31.1822H172.297C175.91 31.1822 178.532 29.2275 179.141 25.6227C179.803 22.0179 177.615 19.5301 174.002 19.5301H170.693L171.101 17.2708H178.353C179.167 17.2708 179.472 17.0169 179.625 16.2046L179.956 14.2245C180.109 13.4121 179.879 13.1328 179.091 13.1328ZM174.078 25.3435C173.9 26.4604 173.137 27.0443 171.915 27.0443H169.37L169.955 23.668H172.526C173.722 23.668 174.256 24.2519 174.078 25.3435Z" fill="#112D38"/>
<path opacity="0.9" fill-rule="evenodd" clip-rule="evenodd" d="M24.9508 2.99609L36.9368 14.9533C30.5299 20.1213 24.428 23.0388 18.6593 23.2451C17.8574 20.4127 17.6452 17.6548 18.0724 14.9743C18.283 13.6513 18.6502 12.3492 19.1778 11.0672C19.3737 11.1188 19.5795 11.1465 19.7916 11.1465C21.113 11.1465 22.1854 10.0766 22.1854 8.75833C22.1854 8.07339 21.8958 7.45532 21.4323 7.01971C22.4013 5.65319 23.5719 4.31198 24.9508 2.99609Z" fill="#6EC4CB"/>
<path fill-rule="evenodd" clip-rule="evenodd" d="M1.46125 16.132C3.1561 18.0283 4.89547 19.5872 6.67506 20.8248C6.64059 20.9862 6.6224 21.1534 6.6224 21.3244C6.6224 22.6427 7.69484 23.7126 9.01621 23.7126C9.6602 23.7126 10.2452 23.4585 10.6761 23.0449C12.1101 23.6481 13.5675 24.0632 15.0464 24.2977C15.9292 24.4376 16.8207 24.5131 17.7203 24.5255C18.2417 26.1294 18.9383 27.7558 19.8043 29.4037C19.3003 29.8412 18.9809 30.4865 18.9809 31.2053C18.9809 32.5236 20.0538 33.5935 21.3747 33.5935C21.6759 33.5935 21.9646 33.5381 22.2303 33.4363C22.9738 34.5373 23.7877 35.6478 24.6711 36.7665L23.4713 37.9629C21.4389 39.991 18.1383 39.991 16.1059 37.9629L1.52445 23.416C-0.486862 21.4094 -0.507928 18.1649 1.46125 16.132ZM37.8415 15.8569L38.0527 16.068C40.0856 18.0956 40.0856 21.3884 38.0527 23.416L25.5798 35.8594C24.741 34.7919 23.9658 33.7325 23.2563 32.6812C23.5771 32.2747 23.7686 31.7622 23.7686 31.2053C23.7686 29.8871 22.6961 28.8171 21.3747 28.8171C21.2297 28.8171 21.088 28.83 20.95 28.8548C20.173 27.3842 19.5373 25.9317 19.0479 24.4983C24.9837 24.1763 31.2704 21.1782 37.8415 15.8569ZM2.3647 15.2293L16.1059 1.52104C18.1383 -0.507013 21.4389 -0.507013 23.4713 1.52104L24.0448 2.09325C22.5664 3.50658 21.3173 4.94952 20.2893 6.42066C20.128 6.38626 19.9605 6.36811 19.7886 6.36811C18.4671 6.36811 17.3947 7.43803 17.3947 8.75634C17.3947 9.39872 17.6495 9.98238 18.0641 10.4123C17.4593 11.8428 17.0438 13.2968 16.8087 14.7722C16.3716 17.5152 16.5612 20.3414 17.3396 23.2426C16.6363 23.2168 15.9393 23.1494 15.2469 23.0396C13.9207 22.8294 12.6156 22.4636 11.3306 21.9368C11.3823 21.7414 11.4101 21.536 11.4101 21.3244C11.4101 20.0066 10.3376 18.9362 9.01621 18.9362C8.32969 18.9362 7.71016 19.2252 7.27353 19.688C5.59926 18.5063 3.96283 17.0237 2.3647 15.2293Z" fill="#112D38"/>
</g>
<defs>
<clipPath id="clip0_599_3590">
<rect width="180" height="40" fill="white"/>
</clipPath>
</defs>
</svg>
