<svg width="16" height="15" viewBox="0 0 16 15" fill="none" xmlns="http://www.w3.org/2000/svg">
<path d="M0.941177 0.9375H1.88235V1.875H0.941177V0.9375Z" fill="#969696"/>
<path d="M0.941177 1.875H1.88235V2.8125H0.941177V1.875Z" fill="#969696"/>
<path d="M0.941177 2.8125H1.88235V3.75H0.941177V2.8125Z" fill="#969696"/>
<path d="M0.941177 3.75H1.88235V4.6875H0.941177V3.75Z" fill="#969696"/>
<path d="M0.941177 4.6875H1.88235V5.625H0.941177V4.6875Z" fill="#969696"/>
<path d="M0.941177 5.625H1.88235V6.5625H0.941177V5.625Z" fill="#969696"/>
<path d="M0 6.5625H0.941177V7.5H0V6.5625Z" fill="#969696"/>
<path d="M0 7.5H0.941177V8.4375H0V7.5Z" fill="#969696"/>
<path d="M0 8.4375H0.941177V9.375H0V8.4375Z" fill="#969696"/>
<path d="M0 9.375H0.941177V10.3125H0V9.375Z" fill="#969696"/>
<path d="M0 10.3125H0.941177V11.25H0V10.3125Z" fill="#969696"/>
<path d="M0 11.25H0.941177V12.1875H0V11.25Z" fill="#969696"/>
<path d="M0.941177 12.1875H1.88235V13.125H0.941177V12.1875Z" fill="#969696"/>
<path d="M1.88235 13.125H2.82353V14.0625H1.88235V13.125Z" fill="#969696"/>
<path d="M1.88235 14.0625H2.82353V15H1.88235V14.0625Z" fill="#969696"/>
<path d="M2.82353 14.0625H3.76471V15H2.82353V14.0625Z" fill="#969696"/>
<path d="M3.76471 14.0625H4.70588V15H3.76471V14.0625Z" fill="#969696"/>
<path d="M4.70588 14.0625H5.64706V15H4.70588V14.0625Z" fill="#969696"/>
<path d="M5.64706 14.0625H6.58824V15H5.64706V14.0625Z" fill="#969696"/>
<path d="M6.58824 12.1875H7.52941V13.125H6.58824V12.1875Z" fill="#969696"/>
<path d="M6.58824 14.0625H7.52941V15H6.58824V14.0625Z" fill="#969696"/>
<path d="M7.52941 12.1875H8.47059V13.125H7.52941V12.1875Z" fill="#969696"/>
<path d="M7.52941 11.25H8.47059V12.1875H7.52941V11.25Z" fill="#969696"/>
<path d="M0.941177 7.5H1.88235V8.4375H0.941177V7.5Z" fill="#969696"/>
<path d="M0.941177 8.4375H1.88235V9.375H0.941177V8.4375Z" fill="#969696"/>
<path d="M2.82353 8.4375H3.76471V9.375H2.82353V8.4375Z" fill="#969696"/>
<path d="M5.64706 8.4375H6.58824V9.375H5.64706V8.4375Z" fill="#969696"/>
<path d="M4.70588 8.4375H5.64706V9.375H4.70588V8.4375Z" fill="#969696"/>
<path d="M6.58824 8.4375H7.52941V9.375H6.58824V8.4375Z" fill="#969696"/>
<path d="M7.52941 9.375H8.47059V10.3125H7.52941V9.375Z" fill="#969696"/>
<path d="M9.41177 9.375H10.3529V10.3125H9.41177V9.375Z" fill="#969696"/>
<path d="M1.88235 9.375H2.82353V10.3125H1.88235V9.375Z" fill="#969696"/>
<path d="M12.2353 8.4375H13.1765V9.375H12.2353V8.4375Z" fill="#969696"/>
<path d="M11.2941 9.375H12.2353V10.3125H11.2941V9.375Z" fill="#969696"/>
<path d="M3.76471 9.375H4.70588V10.3125H3.76471V9.375Z" fill="#969696"/>
<path d="M2.82353 10.3125H3.76471V11.25H2.82353V10.3125Z" fill="#969696"/>
<path d="M10.3529 10.3125H11.2941V11.25H10.3529V10.3125Z" fill="#969696"/>
<path d="M13.1765 8.4375H14.1176V9.375H13.1765V8.4375Z" fill="#969696"/>
<path d="M12.2353 9.375H13.1765V10.3125H12.2353V9.375Z" fill="#969696"/>
<path d="M4.70588 9.375H5.64706V10.3125H4.70588V9.375Z" fill="#969696"/>
<path d="M3.76471 10.3125H4.70588V11.25H3.76471V10.3125Z" fill="#969696"/>
<path d="M11.2941 10.3125H12.2353V11.25H11.2941V10.3125Z" fill="#969696"/>
<path d="M5.64706 9.375H6.58824V10.3125H5.64706V9.375Z" fill="#969696"/>
<path d="M4.70588 10.3125H5.64706V11.25H4.70588V10.3125Z" fill="#969696"/>
<path d="M12.2353 10.3125H13.1765V11.25H12.2353V10.3125Z" fill="#969696"/>
<path d="M14.1176 8.4375H15.0588V9.375H14.1176V8.4375Z" fill="#969696"/>
<path d="M13.1765 9.375H14.1176V10.3125H13.1765V9.375Z" fill="#969696"/>
<path d="M8.47059 8.4375H9.41177V9.375H8.47059V8.4375Z" fill="#969696"/>
<path d="M10.3529 8.4375H11.2941V9.375H10.3529V8.4375Z" fill="#969696"/>
<path d="M14.1176 7.5H15.0588V8.4375H14.1176V7.5Z" fill="#969696"/>
<path d="M1.88235 7.5H2.82353V8.4375H1.88235V7.5Z" fill="#969696"/>
<path d="M2.82353 7.5H3.76471V8.4375H2.82353V7.5Z" fill="#969696"/>
<path d="M3.76471 7.5H4.70588V8.4375H3.76471V7.5Z" fill="#969696"/>
<path d="M4.70588 7.5H5.64706V8.4375H4.70588V7.5Z" fill="#969696"/>
<path d="M5.64706 7.5H6.58824V8.4375H5.64706V7.5Z" fill="#969696"/>
<path d="M6.58824 7.5H7.52941V8.4375H6.58824V7.5Z" fill="#969696"/>
<path d="M7.52941 7.5H8.47059V8.4375H7.52941V7.5Z" fill="#969696"/>
<path d="M8.47059 7.5H9.41177V8.4375H8.47059V7.5Z" fill="#969696"/>
<path d="M9.41177 7.5H10.3529V8.4375H9.41177V7.5Z" fill="#969696"/>
<path d="M10.3529 7.5H11.2941V8.4375H10.3529V7.5Z" fill="#969696"/>
<path d="M11.2941 7.5H12.2353V8.4375H11.2941V7.5Z" fill="#969696"/>
<path d="M12.2353 7.5H13.1765V8.4375H12.2353V7.5Z" fill="#969696"/>
<path d="M13.1765 7.5H14.1176V8.4375H13.1765V7.5Z" fill="#969696"/>
<path d="M7.52941 14.0625H8.47059V15H7.52941V14.0625Z" fill="#969696"/>
<path d="M8.47059 12.1875H9.41177V13.125H8.47059V12.1875Z" fill="#969696"/>
<path d="M8.47059 14.0625H9.41177V15H8.47059V14.0625Z" fill="#969696"/>
<path d="M9.41177 14.0625H10.3529V15H9.41177V14.0625Z" fill="#969696"/>
<path d="M10.3529 14.0625H11.2941V15H10.3529V14.0625Z" fill="#969696"/>
<path d="M11.2941 14.0625H12.2353V15H11.2941V14.0625Z" fill="#969696"/>
<path d="M12.2353 14.0625H13.1765V15H12.2353V14.0625Z" fill="#969696"/>
<path d="M13.1765 14.0625H14.1176V15H13.1765V14.0625Z" fill="#969696"/>
<path d="M13.1765 13.125H14.1176V14.0625H13.1765V13.125Z" fill="#969696"/>
<path d="M14.1176 12.1875H15.0588V13.125H14.1176V12.1875Z" fill="#969696"/>
<path d="M15.0588 11.25H16V12.1875H15.0588V11.25Z" fill="#969696"/>
<path d="M15.0588 10.3125H16V11.25H15.0588V10.3125Z" fill="#969696"/>
<path d="M15.0588 9.375H16V10.3125H15.0588V9.375Z" fill="#969696"/>
<path d="M15.0588 8.4375H16V9.375H15.0588V8.4375Z" fill="#969696"/>
<path d="M15.0588 7.5H16V8.4375H15.0588V7.5Z" fill="#969696"/>
<path d="M15.0588 6.5625H16V7.5H15.0588V6.5625Z" fill="#969696"/>
<path d="M14.1176 5.625H15.0588V6.5625H14.1176V5.625Z" fill="#969696"/>
<path d="M14.1176 4.6875H15.0588V5.625H14.1176V4.6875Z" fill="#969696"/>
<path d="M14.1176 3.75H15.0588V4.6875H14.1176V3.75Z" fill="#969696"/>
<path d="M14.1176 2.8125H15.0588V3.75H14.1176V2.8125Z" fill="#969696"/>
<path d="M14.1176 1.875H15.0588V2.8125H14.1176V1.875Z" fill="#969696"/>
<path d="M14.1176 0.9375H15.0588V1.875H14.1176V0.9375Z" fill="#969696"/>
<path d="M12.2353 0H13.1765V0.9375H12.2353V0Z" fill="#969696"/>
<path d="M13.1765 0H14.1176V0.9375H13.1765V0Z" fill="#969696"/>
<path d="M10.3529 1.875H11.2941V2.8125H10.3529V1.875Z" fill="#969696"/>
<path d="M11.2941 0.9375H12.2353V1.875H11.2941V0.9375Z" fill="#969696"/>
<path d="M8.47059 2.8125H9.41177V3.75H8.47059V2.8125Z" fill="#969696"/>
<path d="M9.41177 2.8125H10.3529V3.75H9.41177V2.8125Z" fill="#969696"/>
<path d="M7.52941 2.8125H8.47059V3.75H7.52941V2.8125Z" fill="#969696"/>
<path d="M6.58824 2.8125H7.52941V3.75H6.58824V2.8125Z" fill="#969696"/>
<path d="M5.64706 2.8125H6.58824V3.75H5.64706V2.8125Z" fill="#969696"/>
<path d="M4.70588 1.875H5.64706V2.8125H4.70588V1.875Z" fill="#969696"/>
<path d="M3.76471 0.9375H4.70588V1.875H3.76471V0.9375Z" fill="#969696"/>
<path d="M2.82353 0H3.76471V0.9375H2.82353V0Z" fill="#969696"/>
<path d="M1.88235 0H2.82353V0.9375H1.88235V0Z" fill="#969696"/>
<path d="M1.88235 0.9375H2.82353V1.875H1.88235V0.9375Z" fill="#C2C2C2"/>
<path d="M1.88235 1.875H2.82353V2.8125H1.88235V1.875Z" fill="#C2C2C2"/>
<path d="M1.88235 2.8125H2.82353V3.75H1.88235V2.8125Z" fill="#C2C2C2"/>
<path d="M1.88235 3.75H2.82353V4.6875H1.88235V3.75Z" fill="#C2C2C2"/>
<path d="M1.88235 4.6875H2.82353V5.625H1.88235V4.6875Z" fill="#C2C2C2"/>
<path d="M1.88235 5.625H2.82353V6.5625H1.88235V5.625Z" fill="#C2C2C2"/>
<path d="M1.88235 6.5625H2.82353V7.5H1.88235V6.5625Z" fill="#C2C2C2"/>
<path d="M4.70588 6.5625H5.64706V7.5H4.70588V6.5625Z" fill="#C2C2C2"/>
<path d="M4.70588 5.625H5.64706V6.5625H4.70588V5.625Z" fill="#C2C2C2"/>
<path d="M4.70588 4.6875H5.64706V5.625H4.70588V4.6875Z" fill="#C2C2C2"/>
<path d="M4.70588 3.75H5.64706V4.6875H4.70588V3.75Z" fill="#C2C2C2"/>
<path d="M4.70588 2.8125H5.64706V3.75H4.70588V2.8125Z" fill="#C2C2C2"/>
<path d="M7.52941 6.5625H8.47059V7.5H7.52941V6.5625Z" fill="#C2C2C2"/>
<path d="M7.52941 10.3125H8.47059V11.25H7.52941V10.3125Z" fill="#C2C2C2"/>
<path d="M7.52941 13.125H8.47059V14.0625H7.52941V13.125Z" fill="#C2C2C2"/>
<path d="M4.70588 13.125H5.64706V14.0625H4.70588V13.125Z" fill="#C2C2C2"/>
<path d="M4.70588 12.1875H5.64706V13.125H4.70588V12.1875Z" fill="#C2C2C2"/>
<path d="M5.64706 11.25H6.58824V12.1875H5.64706V11.25Z" fill="#C2C2C2"/>
<path d="M10.3529 13.125H11.2941V14.0625H10.3529V13.125Z" fill="#C2C2C2"/>
<path d="M10.3529 12.1875H11.2941V13.125H10.3529V12.1875Z" fill="#C2C2C2"/>
<path d="M9.41177 11.25H10.3529V12.1875H9.41177V11.25Z" fill="#C2C2C2"/>
<path d="M7.52941 8.4375H8.47059V9.375H7.52941V8.4375Z" fill="#C2C2C2"/>
<path d="M6.58824 9.375H7.52941V10.3125H6.58824V9.375Z" fill="#C2C2C2"/>
<path d="M8.47059 9.375H9.41177V10.3125H8.47059V9.375Z" fill="#C2C2C2"/>
<path d="M7.52941 5.625H8.47059V6.5625H7.52941V5.625Z" fill="#C2C2C2"/>
<path d="M7.52941 4.6875H8.47059V5.625H7.52941V4.6875Z" fill="#C2C2C2"/>
<path d="M7.52941 3.75H8.47059V4.6875H7.52941V3.75Z" fill="#C2C2C2"/>
<path d="M10.3529 6.5625H11.2941V7.5H10.3529V6.5625Z" fill="#C2C2C2"/>
<path d="M10.3529 5.625H11.2941V6.5625H10.3529V5.625Z" fill="#C2C2C2"/>
<path d="M10.3529 4.6875H11.2941V5.625H10.3529V4.6875Z" fill="#C2C2C2"/>
<path d="M10.3529 3.75H11.2941V4.6875H10.3529V3.75Z" fill="#C2C2C2"/>
<path d="M10.3529 2.8125H11.2941V3.75H10.3529V2.8125Z" fill="#C2C2C2"/>
<path d="M13.1765 6.5625H14.1176V7.5H13.1765V6.5625Z" fill="#C2C2C2"/>
<path d="M14.1176 6.5625H15.0588V7.5H14.1176V6.5625Z" fill="#C2C2C2"/>
<path d="M13.1765 5.625H14.1176V6.5625H13.1765V5.625Z" fill="#C2C2C2"/>
<path d="M13.1765 4.6875H14.1176V5.625H13.1765V4.6875Z" fill="#C2C2C2"/>
<path d="M13.1765 3.75H14.1176V4.6875H13.1765V3.75Z" fill="#C2C2C2"/>
<path d="M13.1765 2.8125H14.1176V3.75H13.1765V2.8125Z" fill="#C2C2C2"/>
<path d="M13.1765 1.875H14.1176V2.8125H13.1765V1.875Z" fill="#C2C2C2"/>
<path d="M13.1765 0.9375H14.1176V1.875H13.1765V0.9375Z" fill="#C2C2C2"/>
<path d="M0.941177 6.5625H1.88235V7.5H0.941177V6.5625Z" fill="#C2C2C2"/>
<path d="M3.76471 6.5625H4.70588V7.5H3.76471V6.5625Z" fill="#C2C2C2"/>
<path d="M3.76471 5.625H4.70588V6.5625H3.76471V5.625Z" fill="#C2C2C2"/>
<path d="M3.76471 4.6875H4.70588V5.625H3.76471V4.6875Z" fill="#C2C2C2"/>
<path d="M3.76471 2.8125H4.70588V3.75H3.76471V2.8125Z" fill="#C2C2C2"/>
<path d="M3.76471 3.75H4.70588V4.6875H3.76471V3.75Z" fill="#C2C2C2"/>
<path d="M3.76471 1.875H4.70588V2.8125H3.76471V1.875Z" fill="#C2C2C2"/>
<path d="M6.58824 6.5625H7.52941V7.5H6.58824V6.5625Z" fill="#C2C2C2"/>
<path d="M6.58824 10.3125H7.52941V11.25H6.58824V10.3125Z" fill="#C2C2C2"/>
<path d="M6.58824 13.125H7.52941V14.0625H6.58824V13.125Z" fill="#C2C2C2"/>
<path d="M3.76471 13.125H4.70588V14.0625H3.76471V13.125Z" fill="#C2C2C2"/>
<path d="M3.76471 12.1875H4.70588V13.125H3.76471V12.1875Z" fill="#C2C2C2"/>
<path d="M4.70588 11.25H5.64706V12.1875H4.70588V11.25Z" fill="#C2C2C2"/>
<path d="M1.88235 10.3125H2.82353V11.25H1.88235V10.3125Z" fill="white"/>
<path d="M14.1176 9.375H15.0588V10.3125H14.1176V9.375Z" fill="white"/>
<path d="M1.88235 11.25H2.82353V12.1875H1.88235V11.25Z" fill="white"/>
<path d="M14.1176 10.3125H15.0588V11.25H14.1176V10.3125Z" fill="white"/>
<path d="M13.1765 10.3125H14.1176V11.25H13.1765V10.3125Z" fill="white"/>
<path d="M12.2353 11.25H13.1765V12.1875H12.2353V11.25Z" fill="white"/>
<path d="M2.82353 11.25H3.76471V12.1875H2.82353V11.25Z" fill="white"/>
<path d="M13.1765 11.25H14.1176V12.1875H13.1765V11.25Z" fill="white"/>
<path d="M3.76471 11.25H4.70588V12.1875H3.76471V11.25Z" fill="white"/>
<path d="M14.1176 11.25H15.0588V12.1875H14.1176V11.25Z" fill="white"/>
<path d="M2.82353 9.375H3.76471V10.3125H2.82353V9.375Z" fill="white"/>
<path d="M10.3529 9.375H11.2941V10.3125H10.3529V9.375Z" fill="white"/>
<path d="M1.88235 8.4375H2.82353V9.375H1.88235V8.4375Z" fill="white"/>
<path d="M9.41177 8.4375H10.3529V9.375H9.41177V8.4375Z" fill="white"/>
<path d="M3.76471 8.4375H4.70588V9.375H3.76471V8.4375Z" fill="white"/>
<path d="M11.2941 8.4375H12.2353V9.375H11.2941V8.4375Z" fill="white"/>
<path d="M6.58824 5.625H7.52941V6.5625H6.58824V5.625Z" fill="#C2C2C2"/>
<path d="M6.58824 4.6875H7.52941V5.625H6.58824V4.6875Z" fill="#C2C2C2"/>
<path d="M6.58824 3.75H7.52941V4.6875H6.58824V3.75Z" fill="#C2C2C2"/>
<path d="M9.41177 6.5625H10.3529V7.5H9.41177V6.5625Z" fill="#C2C2C2"/>
<path d="M9.41177 10.3125H10.3529V11.25H9.41177V10.3125Z" fill="#C2C2C2"/>
<path d="M9.41177 13.125H10.3529V14.0625H9.41177V13.125Z" fill="#C2C2C2"/>
<path d="M9.41177 12.1875H10.3529V13.125H9.41177V12.1875Z" fill="#C2C2C2"/>
<path d="M8.47059 11.25H9.41177V12.1875H8.47059V11.25Z" fill="#C2C2C2"/>
<path d="M12.2353 13.125H13.1765V14.0625H12.2353V13.125Z" fill="#C2C2C2"/>
<path d="M12.2353 12.1875H13.1765V13.125H12.2353V12.1875Z" fill="#C2C2C2"/>
<path d="M13.1765 12.1875H14.1176V13.125H13.1765V12.1875Z" fill="#C2C2C2"/>
<path d="M9.41177 5.625H10.3529V6.5625H9.41177V5.625Z" fill="#C2C2C2"/>
<path d="M9.41177 4.6875H10.3529V5.625H9.41177V4.6875Z" fill="#C2C2C2"/>
<path d="M9.41177 3.75H10.3529V4.6875H9.41177V3.75Z" fill="#C2C2C2"/>
<path d="M12.2353 6.5625H13.1765V7.5H12.2353V6.5625Z" fill="#C2C2C2"/>
<path d="M12.2353 5.625H13.1765V6.5625H12.2353V5.625Z" fill="#C2C2C2"/>
<path d="M12.2353 4.6875H13.1765V5.625H12.2353V4.6875Z" fill="#C2C2C2"/>
<path d="M12.2353 3.75H13.1765V4.6875H12.2353V3.75Z" fill="#C2C2C2"/>
<path d="M12.2353 2.8125H13.1765V3.75H12.2353V2.8125Z" fill="#C2C2C2"/>
<path d="M12.2353 1.875H13.1765V2.8125H12.2353V1.875Z" fill="#C2C2C2"/>
<path d="M12.2353 0.9375H13.1765V1.875H12.2353V0.9375Z" fill="#C2C2C2"/>
<path d="M2.82353 0.9375H3.76471V1.875H2.82353V0.9375Z" fill="#C2C2C2"/>
<path d="M2.82353 1.875H3.76471V2.8125H2.82353V1.875Z" fill="#C2C2C2"/>
<path d="M2.82353 2.8125H3.76471V3.75H2.82353V2.8125Z" fill="#C2C2C2"/>
<path d="M2.82353 3.75H3.76471V4.6875H2.82353V3.75Z" fill="#C2C2C2"/>
<path d="M2.82353 4.6875H3.76471V5.625H2.82353V4.6875Z" fill="#C2C2C2"/>
<path d="M0.941177 9.375H1.88235V10.3125H0.941177V9.375Z" fill="#C2C2C2"/>
<path d="M2.82353 5.625H3.76471V6.5625H2.82353V5.625Z" fill="#C2C2C2"/>
<path d="M0.941177 10.3125H1.88235V11.25H0.941177V10.3125Z" fill="#C2C2C2"/>
<path d="M2.82353 6.5625H3.76471V7.5H2.82353V6.5625Z" fill="#C2C2C2"/>
<path d="M0.941177 11.25H1.88235V12.1875H0.941177V11.25Z" fill="#C2C2C2"/>
<path d="M5.64706 6.5625H6.58824V7.5H5.64706V6.5625Z" fill="#C2C2C2"/>
<path d="M5.64706 10.3125H6.58824V11.25H5.64706V10.3125Z" fill="#C2C2C2"/>
<path d="M5.64706 13.125H6.58824V14.0625H5.64706V13.125Z" fill="#C2C2C2"/>
<path d="M5.64706 12.1875H6.58824V13.125H5.64706V12.1875Z" fill="#C2C2C2"/>
<path d="M6.58824 11.25H7.52941V12.1875H6.58824V11.25Z" fill="#C2C2C2"/>
<path d="M2.82353 13.125H3.76471V14.0625H2.82353V13.125Z" fill="#C2C2C2"/>
<path d="M2.82353 12.1875H3.76471V13.125H2.82353V12.1875Z" fill="#C2C2C2"/>
<path d="M1.88235 12.1875H2.82353V13.125H1.88235V12.1875Z" fill="#C2C2C2"/>
<path d="M5.64706 5.625H6.58824V6.5625H5.64706V5.625Z" fill="#C2C2C2"/>
<path d="M5.64706 4.6875H6.58824V5.625H5.64706V4.6875Z" fill="#C2C2C2"/>
<path d="M5.64706 3.75H6.58824V4.6875H5.64706V3.75Z" fill="#C2C2C2"/>
<path d="M8.47059 6.5625H9.41177V7.5H8.47059V6.5625Z" fill="#C2C2C2"/>
<path d="M8.47059 10.3125H9.41177V11.25H8.47059V10.3125Z" fill="#C2C2C2"/>
<path d="M8.47059 13.125H9.41177V14.0625H8.47059V13.125Z" fill="#C2C2C2"/>
<path d="M11.2941 13.125H12.2353V14.0625H11.2941V13.125Z" fill="#C2C2C2"/>
<path d="M11.2941 12.1875H12.2353V13.125H11.2941V12.1875Z" fill="#C2C2C2"/>
<path d="M10.3529 11.25H11.2941V12.1875H10.3529V11.25Z" fill="#C2C2C2"/>
<path d="M11.2941 11.25H12.2353V12.1875H11.2941V11.25Z" fill="#C2C2C2"/>
<path d="M8.47059 5.625H9.41177V6.5625H8.47059V5.625Z" fill="#C2C2C2"/>
<path d="M8.47059 4.6875H9.41177V5.625H8.47059V4.6875Z" fill="#C2C2C2"/>
<path d="M8.47059 3.75H9.41177V4.6875H8.47059V3.75Z" fill="#C2C2C2"/>
<path d="M11.2941 6.5625H12.2353V7.5H11.2941V6.5625Z" fill="#C2C2C2"/>
<path d="M11.2941 5.625H12.2353V6.5625H11.2941V5.625Z" fill="#C2C2C2"/>
<path d="M11.2941 4.6875H12.2353V5.625H11.2941V4.6875Z" fill="#C2C2C2"/>
<path d="M11.2941 3.75H12.2353V4.6875H11.2941V3.75Z" fill="#C2C2C2"/>
<path d="M11.2941 2.8125H12.2353V3.75H11.2941V2.8125Z" fill="#C2C2C2"/>
<path d="M11.2941 1.875H12.2353V2.8125H11.2941V1.875Z" fill="#C2C2C2"/>
</svg>
