<svg width="45" height="45" viewBox="0 0 45 45" fill="none" xmlns="http://www.w3.org/2000/svg">
<path d="M1.1882 14.2331C1.99719 14.2331 2.40169 13.8287 2.40169 13.0197V6.85112C2.40169 5.38483 2.77247 4.2809 3.51404 3.53933C4.27247 2.79775 5.36798 2.42697 6.80056 2.42697H13.0449C13.8708 2.42697 14.2837 2.02247 14.2837 1.21348C14.2837 0.404494 13.8708 0 13.0449 0H6.75C4.52528 0 2.83989 0.564607 1.69382 1.69382C0.564607 2.82303 0 4.5 0 6.72472V13.0197C0 13.8287 0.396067 14.2331 1.1882 14.2331ZM43.7865 14.2331C44.5955 14.2331 45 13.8287 45 13.0197V6.72472C45 4.51685 44.427 2.84831 43.2809 1.7191C42.1517 0.573034 40.4747 0 38.25 0H31.9551C31.1292 0 30.7163 0.404494 30.7163 1.21348C30.7163 2.02247 31.1292 2.42697 31.9551 2.42697H38.1742C39.573 2.42697 40.6601 2.79775 41.4354 3.53933C42.2107 4.2809 42.5983 5.38483 42.5983 6.85112V13.0197C42.5983 13.8287 42.9944 14.2331 43.7865 14.2331ZM6.75 45H13.0449C13.8708 45 14.2837 44.6039 14.2837 43.8118C14.2837 43.0028 13.8708 42.5983 13.0449 42.5983H6.80056C5.36798 42.5983 4.27247 42.2275 3.51404 41.486C2.77247 40.7444 2.40169 39.6404 2.40169 38.1742V32.0056C2.40169 31.1966 1.99719 30.7921 1.1882 30.7921C0.396067 30.7921 0 31.1966 0 32.0056V38.3006C0 40.5253 0.564607 42.1938 1.69382 43.3062C2.83989 44.4354 4.52528 45 6.75 45ZM31.9551 45H38.25C40.4747 45 42.1517 44.427 43.2809 43.2809C44.427 42.1517 45 40.4916 45 38.3006V32.0056C45 31.1966 44.5955 30.7921 43.7865 30.7921C42.9944 30.7921 42.5983 31.1966 42.5983 32.0056V38.1742C42.5983 39.6404 42.2107 40.7444 41.4354 41.486C40.6601 42.2275 39.573 42.5983 38.1742 42.5983H31.9551C31.1292 42.5983 30.7163 43.0028 30.7163 43.8118C30.7163 44.6039 31.1292 45 31.9551 45Z" fill="#112D38"/>
<path d="M17.4063 11.3598L11.4774 10.8509C11.4725 10.8344 11.4688 10.8119 11.4703 10.7841C11.4703 10.7839 11.4703 10.7837 11.4703 10.7836L17.4063 11.3598ZM17.4063 11.3598C17.4078 11.3522 17.409 11.3436 17.4097 11.3339C17.411 11.3061 17.4071 11.2838 17.4021 11.2674L11.4733 10.7588L17.4063 11.3598ZM21.6074 34.25C20.7342 34.25 19.8559 34.0884 18.9957 33.7597C20.7365 34.3913 22.5708 34.3751 24.2781 33.7335C23.4072 34.0784 22.507 34.25 21.6074 34.25ZM33.1105 10.8541L27.5919 11.3558C27.5913 11.3506 27.5908 11.345 27.5905 11.3392L27.5904 11.3377C27.5888 11.3094 27.5916 11.2845 27.5964 11.2642L33.1145 10.7629C33.1152 10.7687 33.1158 10.7748 33.1161 10.7814L33.1162 10.7827C33.1177 10.81 33.1151 10.8342 33.1105 10.8541ZM33.2001 10.002C33.5429 9.97091 33.8412 10.3021 33.865 10.7408C33.8896 11.1788 33.6312 11.5605 33.2884 11.591L33.2001 10.002ZM37.1525 18.6597H37.3424C37.7051 18.6597 38 18.3517 38 17.9718C38.0003 17.5919 37.7057 17.2842 37.3426 17.2842H36.1009C35.2784 14.7925 33.0209 13 30.3586 13C27.6385 13 25.3365 14.8686 24.5615 17.4448L37.1525 18.6597ZM35.3887 17.5193L35.5587 18.0342H35.58L35.6528 18.7369C35.6745 18.9463 35.6875 19.1523 35.6875 19.3561C35.6875 22.4843 33.2704 24.9619 30.3578 24.9619C27.4461 24.9619 25.0296 22.484 25.0296 19.3561C25.0296 19.0986 25.0527 18.8394 25.0892 18.5708L25.1578 18.0661L25.2797 17.6608C25.9676 15.374 27.9975 13.75 30.3586 13.75C32.6686 13.75 34.6584 15.3068 35.3887 17.5193ZM37.3426 18.0342C37.3425 18.0342 37.3424 18.0342 37.3424 18.0342H37.3426ZM19.5505 17.6615L19.6784 18.0852L19.7398 18.5651C19.7749 18.839 19.7984 19.0989 19.7984 19.3561C19.7984 22.4844 17.3817 24.9619 14.4702 24.9619C11.5585 24.9619 9.14158 22.4839 9.14158 19.3561C9.14158 19.1527 9.15477 18.9469 9.17635 18.736L9.24816 18.0342H9.27083L9.44083 17.5193C10.1715 15.3066 12.1602 13.75 14.47 13.75C16.8305 13.75 18.8601 15.3738 19.5505 17.6615Z" stroke="#112D38" stroke-width="1.5"/>
</svg>
