<svg width="88" height="44" viewBox="0 0 88 44" fill="none" xmlns="http://www.w3.org/2000/svg">
<path d="M6.93584 9.25551H19.933C23.7478 9.28751 26.5121 10.3865 28.226 12.5507C29.9398 14.7148 30.5053 17.6708 29.9234 21.4185C29.6974 23.131 29.1959 24.8106 28.42 26.4581C27.6658 28.1207 26.614 29.6316 25.3162 30.9163C23.6993 32.5959 21.9699 33.662 20.127 34.1145C18.2841 34.5671 16.3763 34.7929 14.4044 34.7929H8.58473L6.74185 44H0.000778198L6.93584 9.25551ZM12.61 14.7797L9.70016 29.3172C9.89415 29.3492 10.0881 29.3656 10.2821 29.3656H10.9611C14.0649 29.3976 16.6517 29.0913 18.7206 28.4449C20.7895 27.7665 22.1803 25.4085 22.8913 21.37C23.4733 17.978 22.8913 16.0232 21.1454 15.5066C19.4316 14.99 17.2822 14.7477 14.6953 14.7797C14.3074 14.8117 13.9359 14.8282 13.5799 14.8282H12.5615L12.61 14.7797ZM37.6024 0H44.2949L42.4036 9.25551H48.4172C51.715 9.32042 54.1718 9.99884 55.7887 11.2907C57.4376 12.5827 57.9226 15.0385 57.2436 18.6564L53.9943 34.7929H47.2048L50.3086 19.3833C50.6316 17.7677 50.5346 16.6211 50.0176 15.9427C49.5006 15.2643 48.3851 14.9251 46.6713 14.9251L41.2881 14.8767L37.3114 34.7929H30.6188L37.6024 0ZM64.4303 9.25551H77.4275C81.2423 9.28751 84.0066 10.3865 85.7205 12.5507C87.4343 14.7148 87.9998 17.6708 87.4178 21.4185C87.1918 23.131 86.6904 24.8106 85.9144 26.4581C85.1603 28.1207 84.1084 29.6316 82.8106 30.9163C81.1938 32.5959 79.4643 33.662 77.6215 34.1145C75.7786 34.5671 73.8707 34.7929 71.8988 34.7929H66.0792L64.2363 44H57.4952L64.4303 9.25551ZM70.1044 14.7797L67.1946 29.3172C67.3886 29.3492 67.5826 29.3656 67.7766 29.3656H68.4555C71.5593 29.3976 74.1462 29.0913 76.2151 28.4449C78.284 27.7665 79.6748 25.4085 80.3858 21.37C80.9678 17.978 80.3858 16.0232 78.6399 15.5066C76.926 14.99 74.7766 14.7477 72.1898 14.7797C71.8018 14.8117 71.4303 14.8282 71.0744 14.8282H70.0559L70.1044 14.7797Z" fill="#969696"/>
</svg>
