<svg width="115" height="25" viewBox="0 0 115 25" fill="none" xmlns="http://www.w3.org/2000/svg">
<g clip-path="url(#clip0_643_5372)">
<path d="M41.6417 5.93172C38.3334 5.93172 35.948 8.49913 35.948 13.1181C35.948 17.773 38.2974 20.3404 41.7256 20.3404C44.7942 20.3404 46.748 18.4928 46.8079 15.5655H42.0852V12.6622H50.3919V15.1216C50.3919 20.4124 46.76 23.6876 41.7016 23.6876C36.0559 23.6876 32.2202 19.6565 32.2202 13.154C32.2202 6.54358 36.2357 2.5965 41.5937 2.5965C46.1127 2.5965 49.5888 5.40385 50.2241 9.43491H46.4483C45.7891 7.25142 44.1109 5.93172 41.6417 5.93172ZM52.8852 8.01924H56.4931V23.3997H52.8852V8.01924ZM54.6951 5.57181C53.5444 5.57181 52.6095 4.70801 52.6095 3.61626C52.6095 2.52451 53.5564 1.63672 54.7071 1.63672C55.8578 1.63672 56.7928 2.53651 56.7928 3.61626C56.7928 4.69601 55.8578 5.57181 54.7071 5.57181H54.6951ZM67.3291 10.8146H64.2965V18.7807C64.2965 20.2444 65.0276 20.5683 65.9386 20.5683C66.0265 20.5683 66.1144 20.5643 66.2023 20.5563C66.2902 20.5483 66.3781 20.5363 66.466 20.5203C66.5539 20.5043 66.6418 20.4923 66.7297 20.4843C66.8176 20.4684 66.9056 20.4484 66.9935 20.4244L67.6048 23.2557C67.429 23.3197 67.2532 23.3717 67.0774 23.4117C66.9016 23.4517 66.7258 23.4877 66.5499 23.5196C66.3741 23.5516 66.1943 23.5756 66.0106 23.5916C65.8347 23.6076 65.6549 23.6196 65.4711 23.6276C62.7622 23.7116 60.6645 22.2839 60.6765 19.3806V10.8266H58.5069V8.01924H60.6765V4.3121H64.2965V8.01924H67.3291V10.8146ZM70.122 2.87243H73.8259V20.2804H82.8278V23.3997H70.122V2.87243ZM84.6378 19.0807C84.6378 15.6135 87.4787 14.7257 90.4513 14.4018C93.1603 14.1138 94.2511 14.0658 94.2511 13.0221V12.9621C94.2511 11.4504 93.3281 10.5866 91.65 10.5866C89.876 10.5866 88.8571 11.4864 88.5095 12.5422L85.1293 12.0503C85.9324 9.24295 88.4016 7.80329 91.626 7.80329C94.5508 7.80329 97.8591 9.027 97.8591 13.0941V23.3997H94.383V21.2882H94.2631C93.6038 22.5839 92.1654 23.7116 89.7561 23.7116C86.8314 23.7116 84.6258 22.116 84.6378 19.0807ZM90.9428 21.0482C93.1244 21.0482 94.5028 19.5966 94.4908 17.881V16.0694C94.0234 16.4533 92.1295 16.6932 91.1705 16.8252C89.5643 17.0531 88.3537 17.629 88.3537 19.0327C88.3537 20.3644 89.4325 21.0482 90.9428 21.0482ZM100.52 2.87243H104.128V10.5507H104.284C104.835 9.43491 105.962 7.80329 108.671 7.80329C112.219 7.80329 115 10.5986 115 15.7215C115 20.7963 112.291 23.6756 108.683 23.6756C106.046 23.6756 104.859 22.104 104.284 20.9762H104.08V23.3997H100.52V2.87243ZM107.676 20.7003C110.062 20.7003 111.32 18.5768 111.32 15.7095C111.32 12.8421 110.074 10.7786 107.676 10.7786C105.351 10.7786 104.068 12.7101 104.068 15.7095C104.068 18.6968 105.363 20.7003 107.676 20.7003Z" fill="#969696"/>
<path d="M25.8318 11.9676C25.8677 12.6755 25.7838 13.3713 25.5801 14.0551C25.3883 14.727 25.0886 15.3748 24.693 15.9507C24.2975 16.5386 23.806 17.0545 23.2427 17.4744L23.2307 17.4864L17.8487 21.5294L15.1876 23.5449L13.5814 24.7687C13.4855 24.8406 13.3816 24.8926 13.2698 24.9246C13.1579 24.9646 13.042 24.9846 12.9221 24.9846C12.8023 24.9846 12.6864 24.9646 12.5745 24.9246C12.4627 24.8926 12.3628 24.8406 12.2749 24.7687L10.6567 23.5449L8.00762 21.5294L2.66157 17.5103L2.63759 17.4864L2.61362 17.4744C2.06224 17.0545 1.57078 16.5386 1.17522 15.9507C0.767676 15.3748 0.46801 14.727 0.276223 14.0551C0.0844366 13.3713 0.000530049 12.6755 0.0245034 11.9676C0.0604633 11.2598 0.204303 10.564 0.456023 9.90411L0.491983 9.82013L4.00407 0.618265C4.02006 0.570276 4.04003 0.526286 4.06401 0.486295C4.08798 0.446305 4.11595 0.406314 4.14791 0.366323C4.17988 0.326332 4.21184 0.290341 4.24381 0.258348C4.28376 0.226356 4.32372 0.198362 4.36367 0.174368C4.48354 0.102384 4.62738 0.0543955 4.77122 0.030401C4.91506 0.0184038 5.0589 0.0423983 5.19075 0.0903871C5.33459 0.138376 5.45446 0.222357 5.55035 0.330331C5.64625 0.438306 5.71817 0.570276 5.75413 0.714242L8.12749 7.99655H17.7288L20.1022 0.714242C20.1501 0.570276 20.21 0.438306 20.3179 0.330331C20.4138 0.222357 20.5337 0.138376 20.6655 0.0903871C20.8094 0.0423983 20.9532 0.0184038 21.097 0.030401C21.2409 0.0543955 21.3727 0.102384 21.5046 0.174368C21.5445 0.198362 21.5805 0.226356 21.6125 0.258348C21.6524 0.290341 21.6884 0.326332 21.7204 0.366323L21.7923 0.486295C21.8162 0.526286 21.8402 0.570276 21.8642 0.618265L25.3763 9.80813L25.4122 9.90411C25.664 10.564 25.8078 11.2598 25.8318 11.9676Z" fill="#969696"/>
<path d="M25.8312 11.9642C25.8672 12.672 25.7833 13.3679 25.5915 14.0517C25.3877 14.7235 25.0881 15.3714 24.6925 15.9473C24.2969 16.5351 23.8055 17.051 23.2421 17.4709L23.2301 17.4829L17.8481 21.526L12.9336 17.7948L20.653 11.9402C20.9966 11.6763 21.3562 11.4363 21.7318 11.2204C22.1074 10.9964 22.495 10.7965 22.8945 10.6205C23.2941 10.4365 23.7016 10.2766 24.1171 10.1406C24.5247 10.0046 24.9442 9.89267 25.3757 9.80469L25.4117 9.90067C25.6634 10.5605 25.8073 11.2564 25.8312 11.9642Z" fill="#C2C2C2"/>
<path d="M12.9336 17.7969L17.8481 21.528L15.1871 23.5435L13.5809 24.7673C13.485 24.8392 13.3811 24.8912 13.2692 24.9232C13.1573 24.9632 13.0415 24.9832 12.9216 24.9832C12.8017 24.9832 12.6859 24.9632 12.574 24.9232C12.4621 24.8912 12.3622 24.8392 12.2743 24.7673L10.6561 23.5435L8.00708 21.528L12.9336 17.7969Z" fill="#E5E5E5"/>
<path d="M12.9221 17.7985L8.00762 21.5296L2.66157 17.5105L2.6376 17.4865L2.61362 17.4745C2.06224 17.0546 1.57078 16.5388 1.17522 15.9509C0.767676 15.375 0.46801 14.7272 0.276223 14.0553C0.0844366 13.3715 0.000530047 12.6757 0.0245034 11.9678C0.0604633 11.26 0.204303 10.5641 0.456023 9.90429L0.491983 9.82031C0.915512 9.90829 1.33504 10.0163 1.75058 10.1442C2.16612 10.2802 2.57367 10.4402 2.97322 10.6241C3.36479 10.8001 3.74836 11 4.12394 11.224C4.49952 11.4479 4.86312 11.6879 5.21473 11.9438L12.9221 17.7985Z" fill="#C2C2C2"/>
</g>
<defs>
<clipPath id="clip0_643_5372">
<rect width="115" height="25" fill="white"/>
</clipPath>
</defs>
</svg>
