<svg width="50" height="50" viewBox="0 0 50 50" fill="none" xmlns="http://www.w3.org/2000/svg">
<g clip-path="url(#clip0_643_5389)">
<path d="M0 25V0H50V50H0" fill="#969696"/>
<path d="M10.9624 25.0881V27.1256H17.4624V45.6256H22.0749V27.1256H28.5749V25.1256C28.5749 24.0006 28.5749 23.0881 28.5249 23.0631C28.5249 23.0256 24.5624 23.0131 19.7499 23.0131L10.9999 23.0506V25.1006L10.9624 25.0881ZM40.1749 23.0006C41.4499 23.3006 42.4249 23.8756 43.2999 24.7881C43.7624 25.2881 44.4499 26.1631 44.4999 26.3881C44.4999 26.4631 42.3374 27.9256 41.0249 28.7381C40.9749 28.7756 40.7749 28.5631 40.5749 28.2381C39.9249 27.3131 39.2624 26.9131 38.2249 26.8381C36.7249 26.7381 35.7249 27.5256 35.7249 28.8381C35.7249 29.2381 35.7999 29.4631 35.9499 29.7881C36.2874 30.4756 36.9124 30.8881 38.8499 31.7381C42.4249 33.2756 43.9749 34.2881 44.9124 35.7381C45.9749 37.3631 46.2124 39.9131 45.4999 41.8256C44.6999 43.9131 42.7499 45.3256 39.9624 45.7881C39.0874 45.9381 37.0874 45.9131 36.1499 45.7506C34.1499 45.3756 32.2374 44.3756 31.0624 43.0881C30.5999 42.5881 29.7124 41.2506 29.7624 41.1631L30.2374 40.8631L32.1124 39.7756L33.5249 38.9506L33.8499 39.3881C34.2624 40.0381 35.1874 40.9131 35.7249 41.2131C37.3499 42.0506 39.5249 41.9381 40.5999 40.9631C41.0624 40.5381 41.2624 40.0881 41.2624 39.4631C41.2624 38.8881 41.1749 38.6256 40.8874 38.1881C40.4874 37.6381 39.6874 37.1881 37.4374 36.1881C34.8499 35.0881 33.7499 34.3881 32.7249 33.3131C32.1374 32.6631 31.5999 31.6506 31.3499 30.8131C31.1624 30.0881 31.0999 28.3131 31.2749 27.6006C31.8124 25.1006 33.6999 23.3506 36.3999 22.8506C37.2749 22.6756 39.3374 22.7506 40.1999 22.9756L40.1749 23.0006Z" fill="white"/>
</g>
<defs>
<clipPath id="clip0_643_5389">
<rect width="50" height="50" fill="white"/>
</clipPath>
</defs>
</svg>
