<svg width="20" height="20" viewBox="0 0 20 20" fill="none" xmlns="http://www.w3.org/2000/svg">
<path d="M19.4274 0.578299C18.9274 0.0672987 18.1874 -0.121701 17.4974 0.0782986L1.40742 4.7273C0.67942 4.9293 0.16342 5.5063 0.0244202 6.2383C-0.11758 6.9843 0.37842 7.9323 1.02642 8.3283L6.05742 11.4003C6.57342 11.7163 7.23942 11.6373 7.66642 11.2093L13.4274 5.4483C13.7174 5.1473 14.1974 5.1473 14.4874 5.4483C14.7774 5.7373 14.7774 6.2083 14.4874 6.5083L8.71642 12.2693C8.28842 12.6973 8.20842 13.3613 8.52342 13.8783L11.5974 18.9283C11.9574 19.5273 12.5774 19.8683 13.2574 19.8683C13.3374 19.8683 13.4274 19.8683 13.5074 19.8573C14.2874 19.7583 14.9074 19.2273 15.1374 18.4773L19.9074 2.5083C20.1174 1.8283 19.9274 1.0883 19.4274 0.578299Z" fill="#112D38"/>
<path opacity="0.4" fill-rule="evenodd" clip-rule="evenodd" d="M1.01052 14.8064C0.818523 14.8064 0.626523 14.7334 0.480523 14.5864C0.187523 14.2934 0.187523 13.8194 0.480523 13.5264L1.84552 12.1604C2.13852 11.8684 2.61352 11.8684 2.90652 12.1604C3.19852 12.4534 3.19852 12.9284 2.90652 13.2214L1.54052 14.5864C1.39452 14.7334 1.20252 14.8064 1.01052 14.8064ZM4.77127 15.9988C4.57927 15.9988 4.38726 15.9258 4.24126 15.7788C3.94826 15.4858 3.94826 15.0118 4.24126 14.7188L5.60627 13.3528C5.89926 13.0608 6.37426 13.0608 6.66726 13.3528C6.95926 13.6458 6.95926 14.1208 6.66726 14.4138L5.30126 15.7788C5.15526 15.9258 4.96326 15.9988 4.77127 15.9988ZM5.02542 19.5668C5.17142 19.7138 5.36342 19.7868 5.55542 19.7868C5.74742 19.7868 5.93942 19.7138 6.08542 19.5668L7.45142 18.2018C7.74342 17.9088 7.74342 17.4338 7.45142 17.1408C7.15842 16.8488 6.68342 16.8488 6.39042 17.1408L5.02542 18.5068C4.73242 18.7998 4.73242 19.2738 5.02542 19.5668Z" fill="#112D38"/>
</svg>
