<svg width="30" height="30" viewBox="0 0 30 30" fill="none" xmlns="http://www.w3.org/2000/svg">
<path d="M6.65625 13.3125C2.98011 13.3125 0 10.3323 0 6.65625C0 2.98022 2.98011 0 6.65625 0C10.3324 0 13.3125 2.98022 13.3125 6.65625C13.3125 7.13489 13.262 7.60144 13.166 8.05151C13.138 8.18262 12.983 8.23645 12.8764 8.15479L10.2548 6.14685C10.2169 6.11792 10.1917 6.07544 10.183 6.02856C9.86253 4.30481 8.3509 3 6.53448 3C4.48484 3 2.82328 4.6615 2.82328 6.71118C2.82328 8.64258 4.29837 10.229 6.18331 10.4059C6.21151 10.4084 6.23863 10.4172 6.26277 10.4308C6.28439 10.4432 6.3036 10.4597 6.31903 10.4799L8.15458 12.8763C8.23623 12.9829 8.18255 13.1382 8.05123 13.166C7.60138 13.262 7.13472 13.3125 6.65625 13.3125Z" fill="currentColor"/>
<path d="M23.3438 13.3125C27.0199 13.3125 30 10.3323 30 6.65625C30 2.98022 27.0199 0 23.3438 0C19.6676 0 16.6875 2.98022 16.6875 6.65625C16.6875 7.13489 16.738 7.60144 16.834 8.05151C16.862 8.18262 17.017 8.23645 17.1236 8.15479L19.7452 6.14685C19.7831 6.11792 19.8083 6.07544 19.817 6.02856C20.1375 4.30481 21.6491 3 23.4655 3C25.5152 3 27.1767 4.6615 27.1767 6.71118C27.1767 8.64258 25.7016 10.229 23.8167 10.4059C23.7632 10.411 23.7136 10.4374 23.681 10.4799L21.8454 12.8763C21.7638 12.9829 21.8175 13.1382 21.9488 13.166C22.3986 13.262 22.8653 13.3125 23.3438 13.3125Z" fill="currentColor"/>
<path fill-rule="evenodd" clip-rule="evenodd" d="M6.46875 4.6875C5.38144 4.6875 4.5 5.56897 4.5 6.65625C4.5 7.69592 5.30601 8.54736 6.32728 8.61987L9.375 12.5991V17.6821L6.32728 21.6614C5.30601 21.7339 4.5 22.5853 4.5 23.625C4.5 24.7123 5.38144 25.5938 6.46875 25.5938C7.4459 25.5938 8.25677 24.8818 8.41106 23.9484L12.75 20.625H17.25L21.5889 23.9484C21.7432 24.8818 22.5541 25.5938 23.5312 25.5938C24.6186 25.5938 25.5 24.7123 25.5 23.625C25.5 22.5853 24.694 21.7339 23.6727 21.6614L20.625 17.6821V12.5991L23.6727 8.61987C24.694 8.54736 25.5 7.69592 25.5 6.65625C25.5 5.56897 24.6186 4.6875 23.5312 4.6875C22.5541 4.6875 21.7432 5.39941 21.5889 6.33289L17.6172 9.375H12.3828L8.41106 6.33289C8.25677 5.39941 7.4459 4.6875 6.46875 4.6875ZM17.8125 12.9375C17.8125 12.5233 17.4767 12.1875 17.0625 12.1875H12.9375C12.5233 12.1875 12.1875 12.5233 12.1875 12.9375V17.0625C12.1875 17.4767 12.5233 17.8125 12.9375 17.8125H17.0625C17.4767 17.8125 17.8125 17.4767 17.8125 17.0625V12.9375Z" fill="currentColor"/>
<path d="M30 23.3438C30 19.6677 27.0199 16.6875 23.3438 16.6875C22.8653 16.6875 22.3986 16.738 21.9488 16.834C21.8175 16.8618 21.7638 17.0171 21.8454 17.1237L23.681 19.5201C23.6976 19.5417 23.7185 19.5593 23.7422 19.5718C23.7651 19.5839 23.7904 19.5916 23.8167 19.5941C25.7016 19.771 27.1767 21.3574 27.1767 23.2888C27.1767 25.3385 25.5152 27 23.4655 27C21.6491 27 20.1375 25.6952 19.817 23.9714C19.8083 23.9246 19.7831 23.8821 19.7452 23.8531L17.1236 21.8452C17.017 21.7635 16.862 21.8174 16.834 21.9485C16.738 22.3986 16.6875 22.8651 16.6875 23.3438C16.6875 27.0198 19.6676 30 23.3438 30C27.0199 30 30 27.0198 30 23.3438Z" fill="currentColor"/>
<path d="M0 23.3438C0 19.6677 2.98011 16.6875 6.65625 16.6875C7.13472 16.6875 7.60138 16.738 8.05123 16.834C8.18255 16.8618 8.23623 17.0171 8.15458 17.1237L6.31903 19.5201C6.28638 19.5626 6.23678 19.589 6.18331 19.5941C4.29837 19.771 2.82328 21.3574 2.82328 23.2888C2.82328 25.3385 4.48484 27 6.53448 27C8.3509 27 9.86253 25.6952 10.183 23.9714C10.1917 23.9246 10.2169 23.8821 10.2548 23.8531L12.8764 21.8452C12.983 21.7635 13.138 21.8174 13.166 21.9485C13.262 22.3986 13.3125 22.8651 13.3125 23.3438C13.3125 27.0198 10.3324 30 6.65625 30C2.98011 30 0 27.0198 0 23.3438Z" fill="currentColor"/>
</svg>
