<svg width="25" height="24" viewBox="0 0 25 24" fill="none" xmlns="http://www.w3.org/2000/svg">
<path opacity="0.4" d="M18.054 7.29687C20.505 7.29688 22.5 9.35667 22.5 11.8883V16.9206C22.5 19.4461 20.51 21.5007 18.064 21.5007L6.948 21.5007C4.496 21.5007 2.5 19.4419 2.5 16.9103V11.878C2.5 9.35254 4.491 7.29687 6.938 7.29687H7.878L18.054 7.29687Z" fill="white"/>
<path d="M13.0462 16.0374L15.9552 13.0695C16.2552 12.7627 16.2552 12.2691 15.9532 11.9634C15.6512 11.6587 15.1642 11.6597 14.8642 11.9654L13.2712 13.5905L13.2712 3.2821C13.2712 2.85042 12.9262 2.5 12.5002 2.5C12.0752 2.5 11.7312 2.85042 11.7312 3.2821L11.7312 13.5905L10.1372 11.9654C9.83718 11.6597 9.35018 11.6587 9.04818 11.9634C8.89718 12.1168 8.82118 12.3168 8.82118 12.518C8.82118 12.717 8.89718 12.9171 9.04618 13.0695L11.9552 16.0374C12.1002 16.1847 12.2962 16.268 12.5002 16.268C12.7052 16.268 12.9012 16.1847 13.0462 16.0374Z" fill="#112D38"/>
</svg>
