<svg width="30" height="30" viewBox="0 0 30 30" fill="none" xmlns="http://www.w3.org/2000/svg">
<path opacity="0.4" d="M20.425 2.49976H9.5875C5.35 2.49976 2.5 5.47476 2.5 9.89976V20.1123C2.5 24.5248 5.35 27.4998 9.5875 27.4998H20.425C24.6625 27.4998 27.5 24.5248 27.5 20.1123V9.89976C27.5 5.47476 24.6625 2.49976 20.425 2.49976" fill="white"/>
<path fill-rule="evenodd" clip-rule="evenodd" d="M13.9059 10.2366C13.9059 10.8391 14.3947 11.3304 14.9934 11.3304C15.6097 11.3304 16.0997 10.8391 16.0997 10.2366C16.0997 9.63413 15.6097 9.14288 15.0059 9.14288C14.3997 9.14288 13.9059 9.63413 13.9059 10.2366ZM16.0872 14.2026C16.0872 13.6001 15.5959 13.1089 14.9934 13.1089C14.3909 13.1089 13.8997 13.6001 13.8997 14.2026V19.7276C13.8997 20.3301 14.3909 20.8214 14.9934 20.8214C15.5959 20.8214 16.0872 20.3301 16.0872 19.7276V14.2026Z" fill="white"/>
</svg>
