<svg width="30" height="30" viewBox="0 0 24 24" fill="none" xmlns="http://www.w3.org/2000/svg">
<path opacity="0.4" d="M16.34 2H7.67C4.28 2 2 4.38 2 7.92V16.09C2 19.62 4.28 22 7.67 22H16.34C19.73 22 22 19.62 22 16.09V7.92C22 4.38 19.73 2 16.34 2" fill="#6EC4CB"/>
<path fill-rule="evenodd" clip-rule="evenodd" d="M11.1247 8.18945C11.1247 8.67145 11.5157 9.06445 11.9947 9.06445C12.4877 9.06445 12.8797 8.67145 12.8797 8.18945C12.8797 7.70745 12.4877 7.31445 12.0047 7.31445C11.5197 7.31445 11.1247 7.70745 11.1247 8.18945ZM12.8697 11.3623C12.8697 10.8803 12.4767 10.4873 11.9947 10.4873C11.5127 10.4873 11.1197 10.8803 11.1197 11.3623V15.7823C11.1197 16.2643 11.5127 16.6573 11.9947 16.6573C12.4767 16.6573 12.8697 16.2643 12.8697 15.7823V11.3623Z" fill="#6EC4CB"/>
</svg>
