<svg width="180" height="40" viewBox="0 0 180 40" fill="none" xmlns="http://www.w3.org/2000/svg">
<g clip-path="url(#clip0_728_3235)">
<path d="M61.0483 13.1328H58.1475C57.3586 13.1328 57.0278 13.4121 56.8752 14.2245L55.8828 19.8347H50.9717L51.9641 14.2245C52.1168 13.4121 51.8878 13.1328 51.0735 13.1328H48.1981C47.3838 13.1328 47.0785 13.4121 46.9258 14.2245L44.1014 30.116C43.9741 30.9029 44.1776 31.1822 44.9919 31.1822H47.8673C48.6815 31.1822 49.0124 30.9029 49.1396 30.116L50.1829 24.2772H55.094L54.0762 30.116C53.9235 30.9029 54.1524 31.1822 54.9668 31.1822H57.8422C58.6564 31.1822 58.9618 30.9029 59.1145 30.116L61.9135 14.2245C62.0662 13.4121 61.8372 13.1328 61.0483 13.1328Z" fill="white"/>
<path d="M76.4426 13.1562H65.7807C64.9664 13.1562 64.6611 13.4355 64.5084 14.2225L61.7094 30.114C61.5567 30.9009 61.7857 31.1803 62.6 31.1803H73.4654C74.2797 31.1803 74.6104 30.9009 74.7377 30.114L75.1448 27.8039C75.2975 26.9916 75.0684 26.7377 74.2797 26.7377H67.3329L67.7655 24.3007H73.1346C73.9489 24.3007 74.2542 24.0214 74.4069 23.2091L74.8141 20.9243C74.9412 20.1374 74.7377 19.8581 73.9234 19.8581H68.5543L68.9615 17.5988H75.6792C76.468 17.5988 76.7988 17.3196 76.9515 16.5072L77.3586 14.2225C77.4858 13.4355 77.2568 13.1562 76.4426 13.1562Z" fill="white"/>
<path d="M87.618 12.0401C89.8829 12.0401 91.6385 11.0755 92.6059 9.34924C92.8857 8.86695 92.7834 8.63843 92.3253 8.46076L90.672 7.80072C90.1627 7.64841 90.01 7.69918 89.679 8.13074C89.2721 8.68924 88.814 8.96848 88.1776 8.96848C87.5164 8.96848 87.1343 8.68924 86.9056 8.13074C86.7273 7.69918 86.6002 7.62302 86.015 7.82611L84.2084 8.46076C83.6994 8.66388 83.5213 8.86695 83.6231 9.34924C83.9539 11.0755 85.4042 12.0401 87.618 12.0401ZM93.9794 13.1317H90.9262C90.341 13.1317 90.0612 13.2841 89.7814 13.6395L85.2516 19.5543C83.8267 21.4075 83.3432 22.2706 81.8928 24.8346H81.7146C82.9869 22.1437 83.2668 21.3314 83.7758 18.5643L84.5392 14.2234C84.6664 13.4364 84.4373 13.1572 83.6231 13.1572H80.7477C79.9334 13.1572 79.6281 13.4364 79.5008 14.2234L76.6764 30.1149C76.5492 30.9018 76.7527 31.1811 77.567 31.1811H80.6459C81.2312 31.1811 81.5111 31.0542 81.8164 30.6733L86.3716 24.7077C87.7707 22.8545 88.2544 22.0929 89.679 19.4782H89.8573C88.6869 22.2452 88.3055 22.9307 87.8218 25.7739L87.0328 30.0895C86.9056 30.9018 87.1095 31.1811 87.9234 31.1811H90.7991C91.5873 31.1811 91.9183 30.9018 92.071 30.1149L94.87 14.2234C95.0227 13.411 94.7941 13.1317 93.9794 13.1317Z" fill="white"/>
<path d="M105.733 13.1562H98.7107C97.896 13.1562 97.5906 13.4355 97.4379 14.2225L94.639 30.114C94.4863 30.9009 94.7158 31.1803 95.5296 31.1803H98.4053C99.2192 31.1803 99.5246 30.9009 99.6773 30.114L100.441 25.773H103.545C107.515 25.773 110.39 23.8945 111.103 19.8835C111.789 15.8471 109.704 13.1562 105.733 13.1562ZM103.723 21.3305H101.23L101.891 17.5988H104.385C105.606 17.5988 106.166 18.3603 105.963 19.4774C105.759 20.5943 104.919 21.3305 103.723 21.3305Z" fill="white"/>
<path d="M112.548 19.6316L111.734 24.2264C110.996 28.6181 113.337 31.5629 118.35 31.5629C123.388 31.5629 126.518 29.1512 127.307 24.7848L128.095 20.19C128.859 15.7983 126.518 12.7773 121.505 12.7773C116.467 12.7773 113.311 15.2652 112.548 19.6316ZM123.159 19.6569L122.269 24.6833C121.989 26.2826 120.818 27.1204 119.062 27.1204C117.281 27.1204 116.416 26.2826 116.695 24.6833L117.586 19.6569C117.866 18.0576 119.037 17.2199 120.818 17.2199C122.574 17.2199 123.439 18.0576 123.159 19.6569Z" fill="white"/>
<path d="M145.58 13.1562H134.714C133.9 13.1562 133.594 13.4355 133.442 14.2225L132.424 20.0105C131.585 24.783 130.134 26.0523 128.455 26.9408C127.665 27.347 127.411 27.7024 127.665 28.4132L128.709 30.8502C128.964 31.561 129.269 31.7387 130.057 31.358C133.34 29.8602 136.063 27.3723 137.386 19.9851L137.793 17.5988H140.846L138.633 30.114C138.506 30.9009 138.709 31.1803 139.523 31.1803H142.399C143.214 31.1803 143.544 30.9009 143.671 30.114L146.496 14.2225C146.623 13.4355 146.394 13.1562 145.58 13.1562Z" fill="white"/>
<path d="M162.373 30.1394L159.344 13.994C159.217 13.334 158.886 13.1562 158.148 13.1562H155.273C154.535 13.1562 154.179 13.3086 153.797 14.0448L145.094 30.1394C144.713 30.8248 144.789 31.1803 145.578 31.1803H148.377C149.649 31.1803 150.031 30.9009 150.413 30.114L151.303 28.2862H156.825L157.079 30.114C157.156 30.9009 157.487 31.1803 158.785 31.1803H161.431C162.22 31.1803 162.5 30.8248 162.373 30.1394ZM155.96 21.3305L156.367 24.3007H153.212L154.663 21.3051C155.476 19.6042 155.807 17.7765 155.807 17.7765H156.036C156.036 17.7765 155.756 19.6042 155.96 21.3305Z" fill="white"/>
<path d="M179.091 13.1328H167.869C167.055 13.1328 166.75 13.4121 166.597 14.2245L163.772 30.1668C163.645 30.9283 163.874 31.1822 164.637 31.1822H172.297C175.91 31.1822 178.532 29.2275 179.141 25.6227C179.803 22.0179 177.615 19.5301 174.002 19.5301H170.693L171.101 17.2708H178.353C179.167 17.2708 179.472 17.0169 179.625 16.2046L179.956 14.2245C180.109 13.4121 179.879 13.1328 179.091 13.1328ZM174.078 25.3435C173.9 26.4604 173.137 27.0443 171.915 27.0443H169.37L169.955 23.668H172.526C173.722 23.668 174.256 24.2519 174.078 25.3435Z" fill="white"/>
<path opacity="0.9" fill-rule="evenodd" clip-rule="evenodd" d="M24.9508 2.99609L36.9367 14.9533C30.5298 20.1213 24.4279 23.0388 18.6592 23.2451C17.8573 20.4127 17.6452 17.6548 18.0723 14.9743C18.2829 13.6513 18.6502 12.3492 19.1777 11.0672C19.3736 11.1188 19.5794 11.1465 19.7915 11.1465C21.1129 11.1465 22.1854 10.0766 22.1854 8.75833C22.1854 8.07339 21.8957 7.45532 21.4323 7.01971C22.4013 5.65319 23.5719 4.31198 24.9508 2.99609Z" fill="#6EC4CB"/>
<path fill-rule="evenodd" clip-rule="evenodd" d="M1.46125 16.132C3.1561 18.0283 4.89547 19.5872 6.67506 20.8248C6.64059 20.9862 6.6224 21.1534 6.6224 21.3244C6.6224 22.6427 7.69484 23.7126 9.01621 23.7126C9.6602 23.7126 10.2452 23.4585 10.6761 23.0449C12.1101 23.6481 13.5675 24.0632 15.0464 24.2977C15.9292 24.4376 16.8207 24.5131 17.7203 24.5255C18.2417 26.1294 18.9383 27.7558 19.8043 29.4037C19.3003 29.8412 18.9809 30.4865 18.9809 31.2053C18.9809 32.5236 20.0538 33.5935 21.3747 33.5935C21.6759 33.5935 21.9646 33.5381 22.2303 33.4363C22.9738 34.5373 23.7877 35.6478 24.6711 36.7665L23.4713 37.9629C21.4389 39.991 18.1383 39.991 16.1059 37.9629L1.52445 23.416C-0.486862 21.4094 -0.507928 18.1649 1.46125 16.132ZM37.8415 15.8569L38.0527 16.068C40.0856 18.0956 40.0856 21.3884 38.0527 23.416L25.5798 35.8594C24.741 34.7919 23.9658 33.7325 23.2563 32.6812C23.5771 32.2747 23.7686 31.7622 23.7686 31.2053C23.7686 29.8871 22.6961 28.8171 21.3747 28.8171C21.2297 28.8171 21.088 28.83 20.95 28.8548C20.173 27.3842 19.5373 25.9317 19.0479 24.4983C24.9837 24.1763 31.2704 21.1782 37.8415 15.8569ZM2.3647 15.2293L16.1059 1.52104C18.1383 -0.507013 21.4389 -0.507013 23.4713 1.52104L24.0448 2.09325C22.5664 3.50658 21.3173 4.94952 20.2893 6.42066C20.128 6.38626 19.9605 6.36811 19.7886 6.36811C18.4671 6.36811 17.3947 7.43803 17.3947 8.75634C17.3947 9.39872 17.6495 9.98238 18.0641 10.4123C17.4593 11.8428 17.0438 13.2968 16.8087 14.7722C16.3716 17.5152 16.5612 20.3414 17.3396 23.2426C16.6363 23.2168 15.9393 23.1494 15.2469 23.0396C13.9207 22.8294 12.6156 22.4636 11.3306 21.9368C11.3823 21.7414 11.4101 21.536 11.4101 21.3244C11.4101 20.0066 10.3376 18.9362 9.01621 18.9362C8.32969 18.9362 7.71016 19.2252 7.27353 19.688C5.59926 18.5063 3.96283 17.0237 2.3647 15.2293Z" fill="white"/>
</g>
<defs>
<clipPath id="clip0_728_3235">
<rect width="180" height="40" fill="white"/>
</clipPath>
</defs>
</svg>
