<svg width="31" height="30" viewBox="0 0 31 30" fill="none" xmlns="http://www.w3.org/2000/svg">
<path opacity="0.4" d="M16.7204 3.89202L19.5035 9.48486C19.7085 9.89007 20.0999 10.1715 20.5512 10.234L26.8025 11.1445C27.1676 11.1957 27.4989 11.3883 27.7227 11.6822C27.944 11.9724 28.0391 12.3401 27.9853 12.7015C27.9415 13.0016 27.8003 13.2793 27.584 13.4919L23.0542 17.8829C22.7229 18.1893 22.5729 18.6433 22.6529 19.0872L23.7681 25.2604C23.8869 26.0058 23.3931 26.7086 22.6529 26.8499C22.3478 26.8987 22.0353 26.8474 21.7602 26.7074L16.184 23.8021C15.7702 23.5933 15.2813 23.5933 14.8675 23.8021L9.29128 26.7074C8.60614 27.0713 7.7572 26.8237 7.37587 26.1483C7.23459 25.8794 7.18458 25.573 7.23084 25.2741L8.34608 19.0998C8.4261 18.657 8.27481 18.2005 7.94474 17.8941L3.41502 13.5057C2.87616 12.9854 2.8599 12.1287 3.37876 11.5897C3.39002 11.5784 3.40252 11.5659 3.41502 11.5534C3.63007 11.3346 3.91263 11.1957 4.21769 11.1595L10.469 10.2477C10.9191 10.184 11.3105 9.90508 11.5168 9.49737L14.1998 3.89202C14.4386 3.41177 14.9337 3.11287 15.4714 3.12538H15.6389C16.1052 3.18166 16.5116 3.47055 16.7204 3.89202Z" fill="white"/>
<path d="M15.49 23.6464C15.2479 23.6539 15.012 23.719 14.7998 23.8353L9.2509 26.7339C8.57195 27.0579 7.75945 26.8065 7.37879 26.1572C7.23776 25.892 7.18659 25.588 7.23402 25.2902L8.3423 19.1289C8.41719 18.6811 8.26742 18.2257 7.94167 17.9104L3.40992 13.5231C2.872 12.9964 2.86202 12.132 3.3887 11.5928C3.39619 11.5853 3.40243 11.579 3.40992 11.5727C3.62459 11.3601 3.90166 11.22 4.19995 11.1762L10.4565 10.2554C10.9096 10.1979 11.3027 9.91514 11.5024 9.5048L14.222 3.8289C14.4803 3.37102 14.9758 3.0983 15.5 3.12707C15.49 3.49863 15.49 23.3937 15.49 23.6464Z" fill="white"/>
</svg>
