<svg width="97" height="46" viewBox="0 0 97 46" fill="none" xmlns="http://www.w3.org/2000/svg">
<g id="rusal 1" clip-path="url(#clip0_643_5331)">
<path id="Vector" d="M50.6221 25.223H49.4142V25.5447H53.5879V25.223H52.38V21.276H53.9185C56.9288 21.276 57.9524 19.822 57.9524 18.0592C57.9524 15.1448 55.1741 14.7812 53.9344 14.7812H49.4142V15.1029H50.6221V25.223ZM52.38 20.9608V15.0837H53.4639C55.9116 15.0837 55.9751 16.7789 55.9751 17.4866V18.6897C55.9751 19.7094 55.5047 20.9608 53.4639 20.9608H52.38Z" fill="white"/>
<path id="Vector_2" d="M66.1603 16.7625C66.2772 16.4449 66.351 16.1127 66.3797 15.775C66.3874 15.6803 66.3742 15.5849 66.3411 15.4959C66.308 15.407 66.2559 15.3266 66.1884 15.2604C66.1209 15.1943 66.0398 15.1441 65.9508 15.1135C65.8619 15.0829 65.7673 15.0726 65.674 15.0834H65.4579V14.7617H68.1248V15.0834C67.8081 15.0901 67.5017 15.1993 67.2506 15.395C66.9994 15.5907 66.8168 15.8625 66.7294 16.1707L64.5297 22.1957C63.3853 25.3225 62.3331 25.7343 61.6687 25.7343C60.4926 25.7343 59.5167 24.8786 59.5167 23.8235C59.5167 23.1351 59.8759 22.5368 60.5498 22.5368C60.6797 22.5248 60.8106 22.54 60.9344 22.5813C61.0583 22.6226 61.1726 22.6892 61.27 22.7769C61.3674 22.8646 61.4459 22.9717 61.5009 23.0914C61.5559 23.2111 61.5859 23.3409 61.5892 23.4729C61.5826 23.7331 61.4753 23.9802 61.2905 24.1612C61.122 24.3768 60.712 24.5922 60.712 24.8046C60.712 25.1038 61.0903 25.4479 61.7959 25.4479C62.5016 25.4479 62.9117 24.6888 63.2549 24.0486L59.2211 15.0834H58.1371V14.7617H62.4571V15.0834H61.1379L64.2309 21.932L66.1603 16.7625Z" fill="white"/>
<path id="Vector_3" d="M75.6169 14.5898V18.0962H75.299C75.0956 16.1661 74.4536 14.9019 72.6162 14.9019C71.5767 14.9019 69.8856 15.5775 69.8856 19.0837V21.7537C69.8856 24.6489 71.475 25.408 72.578 25.408C73.7606 25.408 75.048 24.5814 75.5184 21.9532H75.8967L75.7664 25.5399H75.3626C75.3626 25.3919 75.2832 24.8966 74.8636 24.8966C74.5607 24.9445 74.2744 25.0684 74.0307 25.2568C73.4684 25.5507 72.8483 25.7134 72.2157 25.7329C69.5264 25.7329 67.9084 23.0984 67.9084 19.8076C67.9084 16.7774 70.0287 14.5931 72.5209 14.5898C73.7446 14.5898 73.9863 15.1206 74.6093 15.1014C74.7873 15.1014 75.0798 15.1014 75.245 14.5898H75.6169Z" fill="white"/>
<path id="Vector_4" d="M83.8145 25.2248H82.419V25.5465H86.739V25.2248H85.6677L82.0884 14.7734H81.8055L78.3374 24.1022C78.1658 24.5622 77.743 25.1734 77.05 25.2216V25.5433H79.7203V25.2216C78.8556 25.1734 78.7157 24.8999 78.7157 24.4496C78.741 24.0708 78.8415 23.7009 79.0113 23.3624L79.5772 21.8987H82.6479L83.8145 25.2248ZM82.543 21.5706H79.6599L81.1952 17.4884L82.543 21.5706Z" fill="white"/>
<path id="Vector_5" d="M92.2733 15.0841C90.4264 15.0841 90.6584 15.7274 90.544 20.2309L90.4836 22.8785C90.4359 24.889 90.188 25.7286 88.9165 25.7286C87.7975 25.7286 87.0632 25.1334 87.0632 24.162C87.0632 23.4574 87.4543 22.946 88.144 22.946C88.3854 22.9301 88.6232 23.0114 88.8054 23.1724C88.9877 23.3333 89.0996 23.5607 89.1167 23.8048C89.1102 24.0852 89.0242 24.3577 88.8688 24.5898C88.7785 24.7162 88.7245 24.8653 88.713 25.0208C88.713 25.1527 88.8243 25.3425 89.1326 25.3425C90.1212 25.3425 90.1212 23.9947 90.1562 22.8881L90.2198 20.2407C90.296 16.9499 90.2642 17.7863 90.2642 16.7665C90.2642 16.1231 90.2038 15.0873 88.9006 15.0873H88.5254V14.7656H97.0001V15.0873H95.7922V25.2235H97.0001V25.5452H92.82V25.2235H94.0279V15.0841H92.2733Z" fill="white"/>
<path id="Vector_6" fill-rule="evenodd" clip-rule="evenodd" d="M40.3292 0H0V25.5447H10.1022C8.42554 23.3535 7.52944 20.6535 7.55914 17.8823C7.56334 15.865 8.04081 13.8775 8.95227 12.0834C9.86372 10.2892 11.1831 8.73975 12.8019 7.56241C14.4207 6.38506 16.2925 5.6135 18.2634 5.3112C20.2344 5.0089 22.2481 5.1845 24.1389 5.82357C26.0298 6.46263 27.7436 7.54689 29.1394 8.98711C30.5354 10.4274 31.5733 12.1824 32.168 14.1079C32.7627 16.0333 32.8972 18.0741 32.5603 20.0625C32.2234 22.0508 31.4248 23.9297 30.2302 25.5447H40.3292V0Z" fill="white"/>
<path id="Vector_7" fill-rule="evenodd" clip-rule="evenodd" d="M45.3071 45.9997H15.0801V15.395C15.116 15.3576 15.1627 15.3328 15.2136 15.3242L15.2867 15.395C17.3902 22.5987 21.2377 29.1569 26.4801 34.4749C31.7224 39.7929 38.1937 43.7024 45.3071 45.8486C45.3769 45.8486 45.3769 45.8486 45.3769 45.913C45.3769 45.9317 45.3696 45.9497 45.3565 45.9629C45.3433 45.9762 45.3256 45.9837 45.3071 45.9837V45.9997Z" fill="white"/>
</g>
<defs>
<clipPath id="clip0_643_5331">
<rect width="97" height="46" fill="white"/>
</clipPath>
</defs>
</svg>
