<svg width="26" height="26" viewBox="0 0 26 26" fill="none" xmlns="http://www.w3.org/2000/svg">
<path d="M24.7843 1.22287C24.1593 0.584123 23.2343 0.347873 22.3718 0.597873L2.25928 6.40912C1.34928 6.66162 0.704275 7.38287 0.530525 8.29787C0.353025 9.23037 0.973025 10.4154 1.78303 10.9104L8.07178 14.7504C8.71677 15.1454 9.54928 15.0466 10.083 14.5116L17.2843 7.31037C17.6468 6.93412 18.2468 6.93412 18.6093 7.31037C18.9718 7.67162 18.9718 8.26037 18.6093 8.63537L11.3955 15.8366C10.8605 16.3716 10.7605 17.2016 11.1543 17.8479L14.9968 24.1604C15.4468 24.9091 16.2218 25.3354 17.0718 25.3354C17.1718 25.3354 17.2843 25.3354 17.3843 25.3216C18.3593 25.1979 19.1343 24.5341 19.4218 23.5966L25.3843 3.63537C25.6468 2.78537 25.4093 1.86037 24.7843 1.22287Z" fill="white"/>
<path opacity="0.4" fill-rule="evenodd" clip-rule="evenodd" d="M1.76312 19.0097C1.52312 19.0097 1.28312 18.9185 1.10062 18.7347C0.734365 18.3685 0.734365 17.776 1.10062 17.4097L2.80687 15.7022C3.17312 15.3372 3.76687 15.3372 4.13312 15.7022C4.49811 16.0685 4.49811 16.6622 4.13312 17.0285L2.42562 18.7347C2.24312 18.9185 2.00312 19.0097 1.76312 19.0097ZM6.46404 20.5002C6.22404 20.5002 5.98404 20.4089 5.80154 20.2252C5.43529 19.8589 5.43529 19.2664 5.80154 18.9002L7.50779 17.1927C7.87404 16.8277 8.46779 16.8277 8.83404 17.1927C9.19904 17.5589 9.19904 18.1527 8.83404 18.5189L7.12654 20.2252C6.94404 20.4089 6.70404 20.5002 6.46404 20.5002ZM6.78174 24.9602C6.96424 25.144 7.20424 25.2352 7.44424 25.2352C7.68424 25.2352 7.92424 25.144 8.10674 24.9602L9.81424 23.254C10.1792 22.8877 10.1792 22.294 9.81424 21.9277C9.44799 21.5627 8.85424 21.5627 8.48799 21.9277L6.78174 23.6352C6.41549 24.0015 6.41549 24.594 6.78174 24.9602Z" fill="white"/>
</svg>
