<svg width="44" height="44" viewBox="0 0 44 44" fill="none" xmlns="http://www.w3.org/2000/svg">
<path d="M11.0019 0C8.08399 0 5.28562 1.15912 3.22237 3.22237C1.15912 5.28562 0 8.08399 0 11.0019V32.9981C0 35.916 1.15912 38.7144 3.22237 40.7776C5.28562 42.8409 8.08399 44 11.0019 44H32.9981C35.916 44 38.7144 42.8409 40.7776 40.7776C42.8409 38.7144 44 35.916 44 32.9981V0H11.0019Z" fill="#B1EC52"/>
<path d="M36.3559 16.4916H31.0725L26.0471 21.995V11.0019H21.9714V13.6659C21.8384 13.4938 21.6979 13.3234 21.5407 13.1569C20.0582 11.5874 17.9219 10.7949 15.1907 10.7949C12.0324 10.7949 10.2367 12.2083 9.2857 13.3937C8.10471 14.8662 7.57886 16.8745 7.94372 18.5117C8.88789 22.7496 12.8206 23.4265 15.709 23.8019C17.9896 24.0984 20.1713 24.5124 20.1135 26.545C20.0514 28.6546 17.6751 29.1736 16.1143 29.1736C12.0492 29.1736 11.9118 26.1689 11.9118 26.1689H7.5397C7.60185 27.2971 7.94496 29.1083 9.33356 30.6635C10.8552 32.366 13.1364 33.2294 16.1143 33.2294C18.3992 33.2294 20.4796 32.4835 21.9714 31.1639V32.9745H26.0483V27.7844L27.491 26.2056L31.6095 32.9745H36.3546L30.3614 23.0604L36.3559 16.4916ZM12.025 17.5688C11.6651 15.995 13.2352 14.6026 15.2659 14.6026C17.0952 14.6026 18.9288 15.0129 19.6262 17.5632H21.9714V21.4555C19.0475 19.0525 12.7093 20.5604 12.025 17.5688Z" fill="#112D38"/>
</svg>
