<svg width="28" height="30" viewBox="0 0 28 30" fill="none" xmlns="http://www.w3.org/2000/svg">
<path d="M14 0C14.8376 0 15.5114 0.626953 15.5114 1.40625V4.10742L16.9598 2.75977C17.5518 2.20898 18.509 2.20898 19.0947 2.75977C19.6803 3.31055 19.6866 4.20117 19.0947 4.74609L15.5051 8.08594V12.5684L19.674 10.3301L20.9902 5.77148C21.2043 5.02148 22.0356 4.57617 22.8417 4.77539C23.6477 4.97461 24.1264 5.74805 23.9122 6.49805L23.3832 8.33203L25.7196 7.07812C26.4438 6.69141 27.3696 6.91992 27.7852 7.59375C28.2008 8.26758 27.9552 9.12891 27.231 9.51562L24.8946 10.7695L26.8784 11.2617C27.6844 11.4609 28.163 12.2344 27.9489 12.9844C27.7348 13.7344 26.9035 14.1797 26.0975 13.9805L21.198 12.7559L17.0228 15L21.1917 17.2383L26.0912 16.0137C26.8972 15.8145 27.7285 16.2598 27.9426 17.0098C28.1567 17.7598 27.6781 18.5332 26.8721 18.7324L24.8946 19.2305L27.231 20.4844C27.9552 20.8711 28.2008 21.7324 27.7852 22.4062C27.3696 23.0801 26.4438 23.3086 25.7196 22.9219L23.3832 21.668L23.9122 23.5137C24.1264 24.2637 23.6477 25.0371 22.8417 25.2363C22.0356 25.4355 21.2043 24.9902 20.9902 24.2402L19.674 19.6816L15.5114 17.4375V21.9199L19.101 25.2598C19.6929 25.8105 19.6929 26.7012 19.101 27.2461C18.509 27.791 17.5518 27.7969 16.9661 27.2461L15.5177 25.8984V28.5938C15.5177 29.373 14.8439 30 14.0063 30C13.1687 30 12.4949 29.373 12.4949 28.5938V25.8926L11.0465 27.2402C10.4545 27.791 9.4973 27.791 8.91163 27.2402C8.32597 26.6895 8.31967 25.7988 8.91163 25.2539L12.5012 21.9141V17.4375L8.33226 19.6758L7.01609 24.2344C6.80198 24.9844 5.97071 25.4297 5.16463 25.2305C4.35855 25.0312 3.87994 24.2578 4.09406 23.5078L4.61675 21.668L2.28038 22.9219C1.55617 23.3086 0.630442 23.0801 0.214808 22.4062C-0.200826 21.7324 0.0447762 20.8711 0.768987 20.4844L3.10535 19.2305L1.12165 18.7383C0.315568 18.5391 -0.163041 17.7656 0.0510737 17.0156C0.265188 16.2656 1.09646 15.8203 1.90253 16.0195L6.80198 17.2441L10.9772 15L6.80827 12.7617L1.90253 13.9805C1.09646 14.1797 0.265188 13.7344 0.0510737 12.9844C-0.163041 12.2344 0.315568 11.4609 1.12165 11.2617L3.10535 10.7695L0.768987 9.51562C0.0447762 9.12891 -0.200826 8.26758 0.214808 7.59375C0.630442 6.91992 1.55617 6.69141 2.28038 7.07812L4.61675 8.33203L4.08776 6.48633C3.87365 5.73633 4.35225 4.96289 5.15833 4.76367C5.96441 4.56445 6.79568 5.00977 7.00979 5.75977L8.32597 10.3184L12.4886 12.5625V8.08008L8.89904 4.74609C8.30707 4.19531 8.30707 3.30469 8.89904 2.75977C9.491 2.21484 10.4482 2.20898 11.0339 2.75977L12.4823 4.10742V1.40625C12.4823 0.626953 13.1561 0 13.9937 0H14Z" fill="currentColor"/>
</svg>
