<svg width="30" height="30" viewBox="0 0 24 24" fill="none" xmlns="http://www.w3.org/2000/svg">
<path opacity="0.4" d="M16.3403 2H7.6703C4.2803 2 2.0003 4.38 2.0003 7.92V16.09C2.0003 19.62 4.2803 22 7.6703 22H16.3403C19.7303 22 22.0003 19.62 22.0003 16.09V7.92C22.0003 4.38 19.7303 2 16.3403 2" fill="#6EC4CB"/>
<path d="M10.8134 15.248C10.5894 15.248 10.3654 15.163 10.1944 14.992L7.8214 12.619C7.4794 12.277 7.4794 11.723 7.8214 11.382C8.1634 11.04 8.7164 11.039 9.0584 11.381L10.8134 13.136L14.9414 9.00796C15.2834 8.66596 15.8364 8.66596 16.1784 9.00796C16.5204 9.34996 16.5204 9.90396 16.1784 10.246L11.4324 14.992C11.2614 15.163 11.0374 15.248 10.8134 15.248Z" fill="#6EC4CB"/>
</svg>
