<svg width="31" height="30" viewBox="0 0 31 30" fill="none" xmlns="http://www.w3.org/2000/svg">
<path opacity="0.4" d="M20.9254 2.49976H10.0879C5.85037 2.49976 3.00037 5.47476 3.00037 9.89976V20.1123C3.00037 24.5248 5.85037 27.4998 10.0879 27.4998H20.9254C25.1629 27.4998 28.0004 24.5248 28.0004 20.1123V9.89976C28.0004 5.47476 25.1629 2.49976 20.9254 2.49976Z" fill="white"/>
<path d="M14.0168 19.0599C13.7368 19.0599 13.4568 18.9536 13.2431 18.7399L10.2768 15.7736C9.8493 15.3461 9.8493 14.6536 10.2768 14.2274C10.7043 13.7999 11.3956 13.7986 11.8231 14.2261L14.0168 16.4199L19.1768 11.2599C19.6043 10.8324 20.2956 10.8324 20.7231 11.2599C21.1506 11.6874 21.1506 12.3799 20.7231 12.8074L14.7906 18.7399C14.5768 18.9536 14.2968 19.0599 14.0168 19.0599Z" fill="white"/>
</svg>
