<svg width="30" height="30" viewBox="0 0 30 30" fill="none" xmlns="http://www.w3.org/2000/svg">
<path d="M15 0C16.0371 0 16.875 0.837891 16.875 1.875V3.9082C21.5859 4.69336 25.3066 8.41406 26.0918 13.125H28.125C29.1621 13.125 30 13.9629 30 15C30 16.0371 29.1621 16.875 28.125 16.875H26.0918C25.3066 21.5859 21.5859 25.3066 16.875 26.0918V28.125C16.875 29.1621 16.0371 30 15 30C13.9629 30 13.125 29.1621 13.125 28.125V26.0918C8.41406 25.3066 4.69336 21.5859 3.9082 16.875H1.875C0.837891 16.875 0 16.0371 0 15C0 13.9629 0.837891 13.125 1.875 13.125H3.9082C4.69336 8.41406 8.41406 4.69336 13.125 3.9082V1.875C13.125 0.837891 13.9629 0 15 0ZM7.5 15C7.5 16.9891 8.29018 18.8968 9.6967 20.3033C11.1032 21.7098 13.0109 22.5 15 22.5C16.9891 22.5 18.8968 21.7098 20.3033 20.3033C21.7098 18.8968 22.5 16.9891 22.5 15C22.5 13.0109 21.7098 11.1032 20.3033 9.6967C18.8968 8.29018 16.9891 7.5 15 7.5C13.0109 7.5 11.1032 8.29018 9.6967 9.6967C8.29018 11.1032 7.5 13.0109 7.5 15ZM15 10.3125C16.2432 10.3125 17.4355 10.8064 18.3146 11.6854C19.1936 12.5645 19.6875 13.7568 19.6875 15C19.6875 16.2432 19.1936 17.4355 18.3146 18.3146C17.4355 19.1936 16.2432 19.6875 15 19.6875C13.7568 19.6875 12.5645 19.1936 11.6854 18.3146C10.8064 17.4355 10.3125 16.2432 10.3125 15C10.3125 13.7568 10.8064 12.5645 11.6854 11.6854C12.5645 10.8064 13.7568 10.3125 15 10.3125Z" fill="currentColor"/>
</svg>
