<svg width="60" height="60" viewBox="0 0 60 60" fill="none" xmlns="http://www.w3.org/2000/svg">
<path d="M55.4705 31.7085C54.6355 31.7093 53.8169 31.9391 53.1054 32.3727C52.3935 32.8063 51.8165 33.4266 51.4375 34.1652L33.2845 29.3575C33.5096 27.7486 33.199 26.1105 32.3998 24.6929L42.027 17.6862C43.1508 18.6798 44.6986 19.054 46.1566 18.6852C47.615 18.3161 48.7932 17.2517 49.3006 15.845C49.8081 14.4383 49.5788 12.8735 48.6882 11.6688C47.798 10.4643 46.3631 9.77749 44.8593 9.83642C43.3557 9.89544 41.9799 10.6923 41.1883 11.963C40.3963 13.2337 40.2922 14.812 40.9101 16.1744L31.2817 23.1819C29.8705 21.6961 27.9096 20.8465 25.8527 20.8297L24.4268 8.7534C25.8523 8.27375 26.944 7.12233 27.3411 5.6809C27.7377 4.2399 27.3875 2.69669 26.4062 1.56416C25.4249 0.431211 23.9412 -0.143517 22.4466 0.0307017C20.9519 0.204395 19.6423 1.10462 18.9514 2.43183C18.2606 3.75946 18.2791 5.34104 19.0011 6.65196C19.7228 7.9632 21.0535 8.83258 22.5519 8.97144L23.977 21.0478V21.0482C21.6794 21.6162 19.7793 23.215 18.8389 25.3725L11.5258 23.2731C11.8967 21.3574 11.2678 19.3853 9.85452 18.03C8.44117 16.6749 6.43445 16.1198 4.51912 16.5546C2.6038 16.9894 1.03916 18.3552 0.35925 20.1859C-0.320642 22.0161 -0.0234804 24.0636 1.14873 25.629C2.32091 27.1947 4.21012 28.0665 6.17142 27.9469C8.13228 27.8276 9.9001 26.7331 10.8708 25.0368L18.3138 27.1734C18.0297 28.9593 18.404 30.7866 19.3676 32.321C20.3312 33.8548 21.82 34.9921 23.5599 35.5244L20.821 51.0144C19.3174 51.0692 17.94 51.8619 17.1451 53.1301C16.3497 54.3978 16.2409 55.9753 16.8546 57.3388C17.4684 58.7028 18.7244 59.6747 20.2061 59.9325C21.6877 60.1903 23.2018 59.7002 24.2459 58.6246C25.2899 57.5494 25.7278 56.0292 25.4138 54.5686C25.1002 53.1075 24.0763 51.8966 22.6812 51.338L25.4206 35.8469C25.5429 35.8532 25.6655 35.8565 25.789 35.8565C26.9317 35.859 28.0597 35.6029 29.0877 35.1073L31.5497 38.8695H31.5501C30.3653 40.0079 29.8325 41.6586 30.1296 43.2688C30.4268 44.8789 31.5147 46.235 33.0292 46.8821C34.5432 47.5295 36.2827 47.3822 37.6649 46.4903C39.0471 45.598 39.8883 44.0787 39.9073 42.4418C39.9258 40.8054 39.1191 39.2677 37.7576 38.3444C36.3966 37.4215 34.6604 37.2352 33.132 37.8484L30.6692 34.0825C31.6049 33.2969 32.3353 32.299 32.7981 31.1728L50.949 35.9806C50.9452 36.0559 50.9431 36.1317 50.9431 36.2078H50.9435C50.9435 37.4002 51.4202 38.5441 52.2695 39.3875C53.1184 40.2308 54.2704 40.7046 55.4713 40.705C56.6726 40.705 57.8242 40.2312 58.6735 39.3879C59.5228 38.5445 60 37.4011 60 36.2083C60 35.0158 59.5229 33.872 58.6735 33.029C57.8242 32.1857 56.6722 31.7119 55.4709 31.7123L55.4705 31.7085ZM45.039 11.712C45.7392 11.712 46.4106 11.9878 46.9055 12.4796C47.4007 12.9709 47.6789 13.6377 47.6789 14.3328C47.6789 15.028 47.4008 15.6943 46.9055 16.1861C46.4106 16.6775 45.7391 16.9537 45.039 16.9537C44.3393 16.9537 43.6679 16.6775 43.1726 16.1861C42.6777 15.6944 42.3995 15.028 42.3995 14.3328C42.4004 13.6377 42.6786 12.9718 43.1734 12.4804C43.6683 11.9891 44.3394 11.7124 45.039 11.712ZM5.8261 26.0823V26.0819C4.78751 26.0819 3.79154 25.6725 3.05724 24.943C2.32298 24.2139 1.91031 23.2249 1.91075 22.1937C1.91075 21.1628 2.3234 20.1738 3.05768 19.4447C3.79194 18.7157 4.78794 18.3059 5.82654 18.3063C6.86513 18.3063 7.8611 18.7161 8.59496 19.4452C9.32923 20.1747 9.74189 21.1637 9.74146 22.1945C9.73977 23.2254 9.32669 24.2136 8.59248 24.9423C7.85864 25.6709 6.86351 26.0807 5.82524 26.082L5.8261 26.0823ZM23.6262 55.5087C23.6262 56.2038 23.348 56.8702 22.8532 57.3619C22.3579 57.8533 21.6865 58.1296 20.9867 58.1296C20.2866 58.1296 19.6151 57.8533 19.1203 57.3619C18.625 56.8702 18.3468 56.2038 18.3468 55.5087C18.3468 54.8135 18.625 54.1467 19.1203 53.6554C19.6151 53.1636 20.2866 52.8878 20.9867 52.8878C21.686 52.8886 22.3562 53.1644 22.851 53.6554C23.3454 54.1463 23.6241 54.8118 23.6253 55.5061L23.6262 55.5087ZM38.0349 42.3898C38.0349 43.1934 37.7133 43.9643 37.1409 44.5327C36.5684 45.1011 35.792 45.4204 34.9827 45.4204C34.173 45.4204 33.3966 45.1011 32.8242 44.5327C32.2518 43.9639 31.9306 43.193 31.9306 42.3894C31.9306 41.5854 32.2522 40.8144 32.825 40.2465C33.3975 39.6781 34.1739 39.3587 34.9836 39.3592C35.7925 39.36 36.5685 39.6798 37.1404 40.2477C37.7124 40.8161 38.034 41.5862 38.0349 42.3898ZM20.3362 4.49572C20.3362 3.80095 20.614 3.13423 21.1092 2.64243C21.6041 2.15107 22.2756 1.87483 22.9757 1.87483C23.6758 1.87483 24.3468 2.15106 24.8421 2.64243C25.337 3.13421 25.6152 3.80089 25.6152 4.49572C25.6152 5.19091 25.337 5.85765 24.8421 6.34901C24.3469 6.84079 23.6758 7.11661 22.9757 7.11661C22.2756 7.1162 21.6049 6.83997 21.1101 6.3486C20.6152 5.85682 20.3366 5.19088 20.3362 4.49572ZM25.7901 33.9821C24.2836 33.9821 22.8391 33.3882 21.7739 32.331C20.7083 31.2733 20.1098 29.839 20.1098 28.3436C20.1094 26.8477 20.7075 25.4134 21.7726 24.3557C22.8374 23.2977 24.2819 22.7033 25.7883 22.7029C27.2944 22.7029 28.7393 23.2968 29.8045 24.354C30.8696 25.4113 31.4686 26.8456 31.4686 28.3414C31.4678 29.8364 30.8688 31.2704 29.804 32.328C28.7397 33.3856 27.2957 33.9804 25.7901 33.9821ZM55.4713 38.8258C54.7715 38.8258 54.1001 38.5496 53.6048 38.0578C53.11 37.5664 52.8318 36.8997 52.8318 36.2049C52.8318 35.5097 53.11 34.843 53.6048 34.3516C54.1001 33.8599 54.7715 33.5836 55.4713 33.5836C56.1714 33.5836 56.8428 33.8599 57.3377 34.3516C57.833 34.843 58.1107 35.5098 58.1107 36.2049C58.1099 36.8997 57.8317 37.5656 57.3369 38.0569C56.842 38.5483 56.1713 38.825 55.4713 38.8258Z" fill="#112D38"/>
</svg>
