<svg width="45" height="45" viewBox="0 0 45 45" fill="none" xmlns="http://www.w3.org/2000/svg">
<mask id="path-1-inside-1_334_2912" fill="white">
<path d="M1.1882 14.2331C1.99719 14.2331 2.40169 13.8287 2.40169 13.0197V6.85112C2.40169 5.38483 2.77247 4.2809 3.51404 3.53933C4.27247 2.79775 5.36798 2.42697 6.80056 2.42697H13.0449C13.8708 2.42697 14.2837 2.02247 14.2837 1.21348C14.2837 0.404494 13.8708 0 13.0449 0H6.75C4.52528 0 2.83989 0.564607 1.69382 1.69382C0.564607 2.82303 0 4.5 0 6.72472V13.0197C0 13.8287 0.396067 14.2331 1.1882 14.2331ZM43.7865 14.2331C44.5955 14.2331 45 13.8287 45 13.0197V6.72472C45 4.51685 44.427 2.84831 43.2809 1.7191C42.1517 0.573034 40.4747 0 38.25 0H31.9551C31.1292 0 30.7163 0.404494 30.7163 1.21348C30.7163 2.02247 31.1292 2.42697 31.9551 2.42697H38.1742C39.573 2.42697 40.6601 2.79775 41.4354 3.53933C42.2107 4.2809 42.5983 5.38483 42.5983 6.85112V13.0197C42.5983 13.8287 42.9944 14.2331 43.7865 14.2331ZM6.75 45H13.0449C13.8708 45 14.2837 44.6039 14.2837 43.8118C14.2837 43.0028 13.8708 42.5983 13.0449 42.5983H6.80056C5.36798 42.5983 4.27247 42.2275 3.51404 41.486C2.77247 40.7444 2.40169 39.6404 2.40169 38.1742V32.0056C2.40169 31.1966 1.99719 30.7921 1.1882 30.7921C0.396067 30.7921 0 31.1966 0 32.0056V38.3006C0 40.5253 0.564607 42.1938 1.69382 43.3062C2.83989 44.4354 4.52528 45 6.75 45ZM31.9551 45H38.25C40.4747 45 42.1517 44.427 43.2809 43.2809C44.427 42.1517 45 40.4916 45 38.3006V32.0056C45 31.1966 44.5955 30.7921 43.7865 30.7921C42.9944 30.7921 42.5983 31.1966 42.5983 32.0056V38.1742C42.5983 39.6404 42.2107 40.7444 41.4354 41.486C40.6601 42.2275 39.573 42.5983 38.1742 42.5983H31.9551C31.1292 42.5983 30.7163 43.0028 30.7163 43.8118C30.7163 44.6039 31.1292 45 31.9551 45Z"/>
<path d="M25.0707 32.5353C23.1725 33.614 21.0272 33.7692 19.0287 32.9697C18.687 32.8314 18.3126 33.0435 18.1957 33.4431C18.0779 33.8401 18.2609 34.2752 18.6038 34.4118C19.5864 34.8047 20.5979 35 21.6074 35C22.9908 35 24.3672 34.6332 25.6465 33.9064C25.9716 33.721 26.1055 33.2645 25.9462 32.8852C25.7888 32.5083 25.3976 32.3499 25.0707 32.5353Z"/>
<path d="M27.5067 12.1166L33.2884 11.591C33.6312 11.5605 33.8896 11.1788 33.865 10.7408C33.8412 10.3021 33.5429 9.97091 33.2001 10.002L27.4184 10.5273C27.0749 10.559 26.8173 10.9401 26.8416 11.3791C26.8649 11.8166 27.1639 12.1474 27.5067 12.1166Z"/>
<path d="M11.3323 11.5912L17.4543 12.1167C17.8169 12.1475 18.1306 11.817 18.1584 11.3787C18.1831 10.9398 17.9099 10.5589 17.5472 10.5271L11.4258 10.0019C11.0629 9.97146 10.7473 10.3022 10.7216 10.7405C10.6964 11.1788 10.9699 11.5601 11.3323 11.5912Z"/>
<path d="M22.9232 22.9021C22.6575 22.6487 22.2293 22.6482 21.966 22.9021L18.7731 25.965L18.7705 25.9672C18.5077 26.2212 18.5074 26.6326 18.7705 26.8865L20.8455 28.8773C21.1109 29.1313 21.5394 29.1313 21.8045 28.8773C22.0676 28.6242 22.0676 28.2132 21.8045 27.9596L20.2069 26.4264L22.9226 23.8214C23.1857 23.5678 23.1857 23.1556 22.9232 22.9021Z"/>
<path d="M37.3426 17.2842H36.1009C35.2784 14.7925 33.0209 13 30.3586 13C27.6385 13 25.3365 14.8686 24.5615 17.4448C23.9301 17.3347 23.1806 17.2442 22.4149 17.2442C21.6489 17.2442 20.9002 17.3347 20.2685 17.4448C19.491 14.8686 17.1898 13 14.47 13C11.8076 13 9.5514 14.7925 8.72866 17.2842H7.65791C7.29437 17.2842 7 17.5922 7 17.9718C7 18.3516 7.29434 18.6597 7.65791 18.6597H8.43025C8.40684 18.8885 8.39158 19.1207 8.39158 19.3561C8.39158 22.8662 11.1132 25.7119 14.4702 25.7119C17.8271 25.7119 20.5484 22.8668 20.5484 19.3561C20.5484 19.0545 20.5209 18.7597 20.4838 18.4698C20.7964 18.4155 21.1406 18.3684 21.4973 18.3354H23.3317C23.6892 18.3682 24.0313 18.4155 24.346 18.4698C24.3066 18.7597 24.2796 19.0544 24.2796 19.3561C24.2796 22.8662 27.0007 25.7119 30.3578 25.7119C33.7156 25.7119 36.4375 22.8668 36.4375 19.3561C36.4375 19.1207 36.4225 18.8882 36.3988 18.6597H37.3424C37.7051 18.6597 38 18.3517 38 17.9718C38.0003 17.5919 37.7057 17.2842 37.3426 17.2842Z"/>
</mask>
<path d="M1.1882 14.2331C1.99719 14.2331 2.40169 13.8287 2.40169 13.0197V6.85112C2.40169 5.38483 2.77247 4.2809 3.51404 3.53933C4.27247 2.79775 5.36798 2.42697 6.80056 2.42697H13.0449C13.8708 2.42697 14.2837 2.02247 14.2837 1.21348C14.2837 0.404494 13.8708 0 13.0449 0H6.75C4.52528 0 2.83989 0.564607 1.69382 1.69382C0.564607 2.82303 0 4.5 0 6.72472V13.0197C0 13.8287 0.396067 14.2331 1.1882 14.2331ZM43.7865 14.2331C44.5955 14.2331 45 13.8287 45 13.0197V6.72472C45 4.51685 44.427 2.84831 43.2809 1.7191C42.1517 0.573034 40.4747 0 38.25 0H31.9551C31.1292 0 30.7163 0.404494 30.7163 1.21348C30.7163 2.02247 31.1292 2.42697 31.9551 2.42697H38.1742C39.573 2.42697 40.6601 2.79775 41.4354 3.53933C42.2107 4.2809 42.5983 5.38483 42.5983 6.85112V13.0197C42.5983 13.8287 42.9944 14.2331 43.7865 14.2331ZM6.75 45H13.0449C13.8708 45 14.2837 44.6039 14.2837 43.8118C14.2837 43.0028 13.8708 42.5983 13.0449 42.5983H6.80056C5.36798 42.5983 4.27247 42.2275 3.51404 41.486C2.77247 40.7444 2.40169 39.6404 2.40169 38.1742V32.0056C2.40169 31.1966 1.99719 30.7921 1.1882 30.7921C0.396067 30.7921 0 31.1966 0 32.0056V38.3006C0 40.5253 0.564607 42.1938 1.69382 43.3062C2.83989 44.4354 4.52528 45 6.75 45ZM31.9551 45H38.25C40.4747 45 42.1517 44.427 43.2809 43.2809C44.427 42.1517 45 40.4916 45 38.3006V32.0056C45 31.1966 44.5955 30.7921 43.7865 30.7921C42.9944 30.7921 42.5983 31.1966 42.5983 32.0056V38.1742C42.5983 39.6404 42.2107 40.7444 41.4354 41.486C40.6601 42.2275 39.573 42.5983 38.1742 42.5983H31.9551C31.1292 42.5983 30.7163 43.0028 30.7163 43.8118C30.7163 44.6039 31.1292 45 31.9551 45Z" fill="#112D38"/>
<path d="M1.1882 14.2331C1.99719 14.2331 2.40169 13.8287 2.40169 13.0197V6.85112C2.40169 5.38483 2.77247 4.2809 3.51404 3.53933C4.27247 2.79775 5.36798 2.42697 6.80056 2.42697H13.0449C13.8708 2.42697 14.2837 2.02247 14.2837 1.21348C14.2837 0.404494 13.8708 0 13.0449 0H6.75C4.52528 0 2.83989 0.564607 1.69382 1.69382C0.564607 2.82303 0 4.5 0 6.72472V13.0197C0 13.8287 0.396067 14.2331 1.1882 14.2331ZM43.7865 14.2331C44.5955 14.2331 45 13.8287 45 13.0197V6.72472C45 4.51685 44.427 2.84831 43.2809 1.7191C42.1517 0.573034 40.4747 0 38.25 0H31.9551C31.1292 0 30.7163 0.404494 30.7163 1.21348C30.7163 2.02247 31.1292 2.42697 31.9551 2.42697H38.1742C39.573 2.42697 40.6601 2.79775 41.4354 3.53933C42.2107 4.2809 42.5983 5.38483 42.5983 6.85112V13.0197C42.5983 13.8287 42.9944 14.2331 43.7865 14.2331ZM6.75 45H13.0449C13.8708 45 14.2837 44.6039 14.2837 43.8118C14.2837 43.0028 13.8708 42.5983 13.0449 42.5983H6.80056C5.36798 42.5983 4.27247 42.2275 3.51404 41.486C2.77247 40.7444 2.40169 39.6404 2.40169 38.1742V32.0056C2.40169 31.1966 1.99719 30.7921 1.1882 30.7921C0.396067 30.7921 0 31.1966 0 32.0056V38.3006C0 40.5253 0.564607 42.1938 1.69382 43.3062C2.83989 44.4354 4.52528 45 6.75 45ZM31.9551 45H38.25C40.4747 45 42.1517 44.427 43.2809 43.2809C44.427 42.1517 45 40.4916 45 38.3006V32.0056C45 31.1966 44.5955 30.7921 43.7865 30.7921C42.9944 30.7921 42.5983 31.1966 42.5983 32.0056V38.1742C42.5983 39.6404 42.2107 40.7444 41.4354 41.486C40.6601 42.2275 39.573 42.5983 38.1742 42.5983H31.9551C31.1292 42.5983 30.7163 43.0028 30.7163 43.8118C30.7163 44.6039 31.1292 45 31.9551 45Z" stroke="#112D38" stroke-width="3" mask="url(#path-1-inside-1_334_2912)"/>
<path d="M25.0707 32.5353C23.1725 33.614 21.0272 33.7692 19.0287 32.9697C18.687 32.8314 18.3126 33.0435 18.1957 33.4431C18.0779 33.8401 18.2609 34.2752 18.6038 34.4118C19.5864 34.8047 20.5979 35 21.6074 35C22.9908 35 24.3672 34.6332 25.6465 33.9064C25.9716 33.721 26.1055 33.2645 25.9462 32.8852C25.7888 32.5083 25.3976 32.3499 25.0707 32.5353Z" stroke="#112D38" stroke-width="3" mask="url(#path-1-inside-1_334_2912)"/>
<path d="M27.5067 12.1166L33.2884 11.591C33.6312 11.5605 33.8896 11.1788 33.865 10.7408C33.8412 10.3021 33.5429 9.97091 33.2001 10.002L27.4184 10.5273C27.0749 10.559 26.8173 10.9401 26.8416 11.3791C26.8649 11.8166 27.1639 12.1474 27.5067 12.1166Z" stroke="#112D38" stroke-width="3" mask="url(#path-1-inside-1_334_2912)"/>
<path d="M11.3323 11.5912L17.4543 12.1167C17.8169 12.1475 18.1306 11.817 18.1584 11.3787C18.1831 10.9398 17.9099 10.5589 17.5472 10.5271L11.4258 10.0019C11.0629 9.97146 10.7473 10.3022 10.7216 10.7405C10.6964 11.1788 10.9699 11.5601 11.3323 11.5912Z" stroke="#112D38" stroke-width="3" mask="url(#path-1-inside-1_334_2912)"/>
<path d="M22.9232 22.9021C22.6575 22.6487 22.2293 22.6482 21.966 22.9021L18.7731 25.965L18.7705 25.9672C18.5077 26.2212 18.5074 26.6326 18.7705 26.8865L20.8455 28.8773C21.1109 29.1313 21.5394 29.1313 21.8045 28.8773C22.0676 28.6242 22.0676 28.2132 21.8045 27.9596L20.2069 26.4264L22.9226 23.8214C23.1857 23.5678 23.1857 23.1556 22.9232 22.9021Z" stroke="#112D38" stroke-width="3" mask="url(#path-1-inside-1_334_2912)"/>
<path d="M37.3426 17.2842H36.1009C35.2784 14.7925 33.0209 13 30.3586 13C27.6385 13 25.3365 14.8686 24.5615 17.4448C23.9301 17.3347 23.1806 17.2442 22.4149 17.2442C21.6489 17.2442 20.9002 17.3347 20.2685 17.4448C19.491 14.8686 17.1898 13 14.47 13C11.8076 13 9.5514 14.7925 8.72866 17.2842H7.65791C7.29437 17.2842 7 17.5922 7 17.9718C7 18.3516 7.29434 18.6597 7.65791 18.6597H8.43025C8.40684 18.8885 8.39158 19.1207 8.39158 19.3561C8.39158 22.8662 11.1132 25.7119 14.4702 25.7119C17.8271 25.7119 20.5484 22.8668 20.5484 19.3561C20.5484 19.0545 20.5209 18.7597 20.4838 18.4698C20.7964 18.4155 21.1406 18.3684 21.4973 18.3354H23.3317C23.6892 18.3682 24.0313 18.4155 24.346 18.4698C24.3066 18.7597 24.2796 19.0544 24.2796 19.3561C24.2796 22.8662 27.0007 25.7119 30.3578 25.7119C33.7156 25.7119 36.4375 22.8668 36.4375 19.3561C36.4375 19.1207 36.4225 18.8882 36.3988 18.6597H37.3424C37.7051 18.6597 38 18.3517 38 17.9718C38.0003 17.5919 37.7057 17.2842 37.3426 17.2842Z" stroke="#112D38" stroke-width="3" mask="url(#path-1-inside-1_334_2912)"/>
</svg>
