<svg width="116" height="24" viewBox="0 0 116 24" fill="none" xmlns="http://www.w3.org/2000/svg">
<path d="M21.7752 23.811C21.1209 23.811 20.4769 23.5612 19.9956 23.0879L5.10428 8.47098V21.3414C5.10428 22.7059 3.97787 23.8112 2.58791 23.8112C1.19885 23.8112 0.0715332 22.7056 0.0715332 21.3414V2.50809C0.0715332 1.50831 0.68557 0.60831 1.62564 0.226088C2.08532 0.0387359 2.59134 -0.0103811 3.0795 0.0849683C3.56766 0.180318 4.01596 0.415836 4.36753 0.761643L19.2588 15.3785V2.50809C19.2588 1.14364 20.3852 0.0383101 21.7752 0.0383101C23.1654 0.0383101 24.2916 1.14387 24.2916 2.50809V21.3414C24.2912 21.9963 24.026 22.6243 23.5542 23.0874C23.0823 23.5505 22.4425 23.8106 21.7752 23.811ZM33.4279 0.0620878L32.7364 1.32875L27.3887 10.8676L26.6972 12.0721L27.3887 13.2752L32.7366 22.5063L33.4591 23.7716H47.457L48.1485 22.3828L52.1433 14.4792L53.9361 10.8981H49.8787L39.6563 10.9288C38.3268 10.911 37.1037 12.0934 37.1037 13.3985C37.1037 14.7034 38.3268 15.887 39.6563 15.8683L45.8214 15.8376L44.3116 18.8319H36.3848L32.4523 12.0401L36.4161 5.00142H44.8478L46.8135 8.96075H51.8784L48.686 1.45209L47.9934 0.0620878H33.4281M58.9204 0.0314212C57.6017 0.047199 56.4183 1.23875 56.4352 2.53187V8.96809H61.468V2.53187C61.4838 1.21764 60.258 0.0147545 58.9204 0.0314212ZM66.9869 23.8585C66.3197 23.8581 65.68 23.5978 65.2083 23.1346C64.7366 22.6715 64.4716 22.0436 64.4714 21.3888V2.55542C64.4714 1.1912 65.5978 0.0858656 66.9878 0.0858656C68.3779 0.0858656 69.5041 1.1912 69.5041 2.55564V15.4259L84.3959 0.808755C84.7476 0.4631 85.1958 0.227687 85.684 0.132345C86.1721 0.0370037 86.6781 0.0860256 87.1378 0.273199C87.5975 0.460297 87.9904 0.776968 88.2668 1.18319C88.5433 1.58941 88.6908 2.06694 88.6907 2.55542V21.3888C88.6907 22.7528 87.5643 23.8583 86.1744 23.8583C84.7842 23.8583 83.658 22.7528 83.658 21.3885V8.51853L68.7662 23.1354C68.5326 23.3649 68.2552 23.5469 67.9498 23.6709C67.6444 23.795 67.3171 23.8588 66.9866 23.8585M107.331 11.9532L115.158 4.29831C116.143 3.33609 116.146 1.77209 115.165 0.804977C114.184 -0.161246 112.592 -0.163245 111.606 0.798977L103.767 8.4672L95.9265 0.798977C94.9412 -0.164134 93.3488 -0.161023 92.3686 0.804977C91.3871 1.77209 91.3901 3.33609 92.3736 4.29831L100.201 11.9534L92.3967 19.5868C91.4113 20.5501 91.4093 22.113 92.3906 23.079C92.6239 23.3099 92.9016 23.4931 93.2076 23.6179C93.5136 23.7427 93.8418 23.8067 94.1732 23.8061C94.8155 23.8061 95.4576 23.5661 95.9487 23.085L103.767 15.4396L111.583 23.085C111.817 23.314 112.094 23.4955 112.398 23.6193C112.703 23.743 113.03 23.8065 113.36 23.8061C114.006 23.8061 114.65 23.5641 115.142 23.079C116.123 22.113 116.121 20.5501 115.136 19.587L107.331 11.9532ZM58.9204 23.7883C57.6017 23.7728 56.4183 22.5812 56.4352 21.2881V10.9496H61.468V21.2881C61.4838 22.601 60.258 23.8041 58.9204 23.7883Z" fill="#969696"/>
</svg>
