<svg width="116" height="31" viewBox="0 0 116 31" fill="none" xmlns="http://www.w3.org/2000/svg">
<path d="M54.5397 9.03747C53.9211 9.01743 53.4184 9.5184 53.3991 10.1396V15.9108C50.7505 13.7065 46.8647 14.1474 44.7381 16.8927C43.8681 18.0349 43.3848 19.4376 43.3848 20.9004C43.3268 24.4273 46.0334 27.3329 49.4359 27.393C52.8384 27.4531 55.6417 24.6477 55.6997 21.1209V10.2198C55.6997 9.89914 55.5837 9.59856 55.371 9.37813C55.139 9.15771 54.849 9.03747 54.5397 9.03747ZM53.0898 22.4434C52.7031 23.4053 51.9685 24.1667 51.0405 24.5876C50.0739 25.0084 48.9913 25.0084 48.0246 24.5876C47.0967 24.1868 46.3814 23.4053 45.9947 22.4635C45.5887 21.4816 45.5887 20.3594 45.9947 19.3574C46.3814 18.3956 47.116 17.6341 48.0246 17.2333C48.9913 16.8125 50.0739 16.8125 51.0405 17.2333C51.9685 17.6541 52.7031 18.4156 53.0898 19.3775C53.4958 20.3393 53.4958 21.4615 53.0898 22.4434ZM67.3959 16.3917C64.9986 13.9069 61.0934 13.9069 58.6962 16.3917C57.5363 17.594 56.8983 19.2172 56.8983 20.9004C56.8403 24.4273 59.5468 27.3329 62.9494 27.393C66.3519 27.4531 69.1551 24.6477 69.2131 21.1209V20.9004C69.2131 20.0588 69.0585 19.2372 68.7491 18.4557C68.4398 17.6742 67.9758 16.9728 67.3959 16.3917ZM66.6032 22.4234C66.4099 22.9043 66.1199 23.3251 65.7719 23.6858C65.4239 24.0465 64.9986 24.3471 64.554 24.5475C63.5873 24.9683 62.5047 24.9683 61.5381 24.5475C60.6101 24.1467 59.8755 23.3652 59.4888 22.4234C59.0829 21.4415 59.0829 20.3193 59.4888 19.3174C59.8755 18.3555 60.6101 17.6141 61.5381 17.1933C62.5047 16.7724 63.5873 16.7724 64.554 17.1933C65.018 17.3936 65.4239 17.6942 65.7719 18.0549C66.1199 18.4156 66.4099 18.8565 66.6032 19.3174C67.0092 20.3393 67.0092 21.4615 66.6032 22.4234ZM92.8568 15.6903C92.8568 15.53 92.8182 15.3697 92.7602 15.2295C92.7022 15.0892 92.6055 14.9689 92.5089 14.8487C92.4122 14.7485 92.2769 14.6483 92.1415 14.5882C92.0062 14.5281 91.8515 14.488 91.6969 14.488C91.4842 14.488 91.2716 14.5481 91.0782 14.6684L84.5052 19.0969V10.2398C84.5052 9.91918 84.3892 9.61859 84.1765 9.39817C83.9639 9.17774 83.6739 9.03747 83.3646 9.03747C82.7266 9.03747 82.2239 9.55848 82.2046 10.2198V26.0704C82.2046 26.3911 82.3206 26.6916 82.5332 26.9121C82.7459 27.1525 83.0359 27.2728 83.3452 27.2728C83.6545 27.2728 83.9445 27.1525 84.1572 26.9121C84.3699 26.6916 84.5052 26.3911 84.4858 26.0704V21.9625L85.8198 21.0607L90.9043 26.9722C91.1169 27.1726 91.3876 27.2928 91.6776 27.2728C91.8322 27.2728 91.9869 27.2527 92.1222 27.1726C92.2575 27.1124 92.3735 27.0323 92.4895 26.9121C92.5862 26.7918 92.6828 26.6716 92.7408 26.5313C92.7988 26.3911 92.8375 26.2307 92.8375 26.0704C92.8375 25.7698 92.7215 25.4693 92.5282 25.2488L87.811 19.7382L92.4122 16.6322C92.7215 16.4318 92.8762 16.0711 92.8568 15.6903ZM73.7756 18.0549C74.1236 17.6942 74.5489 17.3936 75.0129 17.1933C75.4962 16.9929 75.9989 16.8726 76.5208 16.8726C76.9848 16.8726 77.4295 16.9528 77.8548 17.1131C78.2801 17.2934 78.6861 17.5339 79.0341 17.8545C79.2467 18.0349 79.5174 18.115 79.788 18.115C80.0974 18.1351 80.4067 18.0148 80.6193 17.7744C80.832 17.554 80.948 17.2333 80.948 16.9127C80.948 16.5721 80.8127 16.2314 80.542 16.011C79.44 14.989 78.0094 14.4279 76.5208 14.468C73.1183 14.468 70.3537 17.3335 70.3537 20.8603C70.3537 24.3872 73.099 27.2327 76.4822 27.2527C77.9708 27.2527 79.4014 26.7117 80.5227 25.7097C80.7547 25.4893 80.89 25.1687 80.89 24.828C80.9093 24.1868 80.426 23.6658 79.8267 23.6457H79.7494C79.4787 23.6457 79.2274 23.7259 79.0147 23.8862C78.6667 24.2068 78.2801 24.4473 77.8548 24.6276C77.4295 24.7879 76.9655 24.8681 76.5208 24.8681C75.9989 24.8681 75.4962 24.7679 75.0129 24.5475C74.5489 24.3471 74.1429 24.0465 73.7756 23.6858C72.2677 22.1228 72.2677 19.5979 73.7563 18.0349C73.7756 18.075 73.7756 18.075 73.7756 18.0549ZM115.689 15.3096C115.457 15.0892 115.205 14.9289 114.915 14.8287C114.587 14.7084 114.239 14.6283 113.891 14.5882C113.543 14.5481 113.195 14.5281 112.847 14.5281C112.151 14.5281 111.435 14.6483 110.778 14.9088C110.121 15.1493 109.521 15.51 108.98 15.9508V15.7104C108.961 15.0491 108.42 14.5481 107.782 14.5682C107.492 14.5782 107.218 14.7017 107.013 14.9138C106.808 15.1259 106.689 15.4106 106.68 15.7104V26.1105C106.699 26.7718 107.24 27.2728 107.878 27.2527C108.167 27.2427 108.442 27.1192 108.647 26.9071C108.851 26.695 108.971 26.4103 108.98 26.1105V20.9205C108.98 20.3794 109.077 19.8584 109.29 19.3574C109.483 18.8765 109.754 18.4557 110.121 18.095C110.469 17.7343 110.894 17.4337 111.339 17.2333C111.822 17.0329 112.325 16.9127 112.847 16.9127C113.369 16.9127 113.871 17.0129 114.355 17.1933C114.509 17.2734 114.664 17.3135 114.838 17.3135C114.993 17.3135 115.147 17.2934 115.283 17.2133C115.418 17.1532 115.534 17.073 115.65 16.9528C115.747 16.8526 115.843 16.7123 115.901 16.5721C115.959 16.4318 115.998 16.2715 115.998 16.1112C116.017 15.8106 115.901 15.53 115.689 15.3096ZM105.017 18.4557C104.031 16.0911 101.788 14.5481 99.3139 14.5281C95.9114 14.5281 93.1662 17.3736 93.1468 20.9004C93.1468 24.4273 95.9114 27.2928 99.3139 27.2928C100.783 27.2928 102.214 26.7517 103.335 25.7498L103.374 25.7097C103.47 25.6296 103.567 25.5294 103.625 25.4092C103.992 24.8481 103.857 24.1066 103.335 23.7259C102.89 23.4253 102.31 23.4854 101.924 23.8662C101.885 23.9062 101.769 24.0064 101.769 24.0265L101.75 24.0465C101.421 24.3271 101.054 24.5675 100.648 24.7078C100.223 24.8681 99.7779 24.9483 99.3139 24.9282C98.8886 24.9282 98.4826 24.8681 98.0766 24.7278C97.69 24.5876 97.3227 24.4072 96.994 24.1467C96.6654 23.9062 96.3754 23.6057 96.1434 23.265C95.8921 22.9243 95.7181 22.5236 95.6021 22.1228H104.302C104.611 22.1228 104.901 22.0026 105.114 21.7821C105.346 21.5617 105.462 21.2611 105.442 20.9405C105.462 20.0788 105.307 19.2372 105.017 18.4557ZM95.6021 19.7382C95.7181 19.3174 95.8921 18.9366 96.1434 18.596C96.3754 18.2553 96.6654 17.9547 96.994 17.7143C97.3227 17.4738 97.69 17.2734 98.0766 17.1331C98.4633 16.9929 98.8886 16.9327 99.2946 16.9327C99.7006 16.9327 100.126 16.9929 100.513 17.1331C101.286 17.3936 101.962 17.9147 102.446 18.596C102.697 18.9366 102.871 19.3374 103.006 19.7382H95.6021ZM111.764 25.5494C111.319 25.5494 110.971 25.9302 110.971 26.3911C110.971 26.8519 111.339 27.2126 111.783 27.2126C112.228 27.2126 112.576 26.8319 112.576 26.3911C112.576 25.9101 112.209 25.5494 111.764 25.5494ZM111.764 27.0323C111.416 27.0523 111.126 26.7718 111.107 26.4111C111.087 26.0504 111.358 25.7498 111.706 25.7298C112.054 25.7097 112.344 25.9903 112.363 26.351V26.3911C112.383 26.7317 112.112 27.0323 111.783 27.0323H111.764Z" fill="#969696"/>
<path d="M111.957 26.3911C112.054 26.371 112.112 26.2909 112.112 26.1907C112.112 26.1105 112.093 26.0504 112.035 26.0103C111.957 25.9703 111.861 25.9502 111.764 25.9502C111.667 25.9502 111.551 25.9502 111.455 25.9703V26.7919H111.629V26.4712H111.706C111.803 26.4712 111.861 26.5113 111.88 26.5915C111.899 26.6516 111.919 26.7317 111.938 26.7919H112.131C112.093 26.7317 112.073 26.6516 112.073 26.5915C112.093 26.5113 112.035 26.4312 111.957 26.3911ZM111.725 26.331H111.629V26.0905H111.725C111.841 26.0905 111.899 26.1506 111.899 26.2107C111.919 26.2909 111.822 26.351 111.725 26.331ZM41.2775 11.7227C41.1615 11.6225 40.1176 10.8009 37.875 10.8009C37.295 10.8009 36.6957 10.861 36.1157 10.9612C35.6904 7.89529 33.2352 6.41242 33.1385 6.33226L32.5392 5.97157L32.1526 6.55269C31.6693 7.33421 31.3019 8.21591 31.0893 9.11765C30.6833 10.861 30.9346 12.5042 31.7852 13.9069C30.7606 14.5081 29.098 14.6484 28.75 14.6684H1.2978C0.5825 14.6684 0.00252323 15.2696 0.00252323 16.011C-0.0361419 18.4958 0.369842 20.9806 1.20114 23.3251C2.14844 25.8901 3.55971 27.7938 5.37697 28.956C7.42623 30.2586 10.7708 31 14.5406 31C16.2419 31 17.9431 30.8397 19.6251 30.5191C21.9643 30.0782 24.2069 29.2366 26.2755 28.0142C27.9767 26.9922 29.504 25.6897 30.7993 24.1668C32.9839 21.6219 34.2791 18.7763 35.2264 16.2515H35.6131C37.991 16.2515 39.4603 15.2696 40.2722 14.4279C40.8136 13.9069 41.2195 13.2657 41.5095 12.5443L41.6835 12.0233L41.2775 11.7227Z" fill="#969696"/>
<path d="M3.84973 13.8468H7.52291C7.69691 13.8468 7.85157 13.7065 7.85157 13.5061V10.0995C7.85157 9.91919 7.71624 9.75889 7.52291 9.75889H3.84973C3.67573 9.75889 3.52107 9.89915 3.52107 10.0995V13.5061C3.54041 13.7065 3.67573 13.8468 3.84973 13.8468ZM8.91486 13.8468H12.588C12.762 13.8468 12.9167 13.7065 12.9167 13.5061V10.0995C12.9167 9.91919 12.7814 9.75889 12.588 9.75889H8.91486C8.74087 9.75889 8.58621 9.89915 8.58621 10.0995V13.5061C8.60554 13.7065 8.74087 13.8468 8.91486 13.8468ZM14.0767 13.8468H17.7498C17.9238 13.8468 18.0785 13.7065 18.0785 13.5061V10.0995C18.0785 9.91919 17.9432 9.75889 17.7498 9.75889H14.0767C13.9027 9.75889 13.748 9.89915 13.748 10.0995V13.5061C13.748 13.7065 13.8833 13.8468 14.0767 13.8468ZM19.1611 13.8468H22.8343C23.0083 13.8468 23.163 13.7065 23.163 13.5061V10.0995C23.163 9.91919 23.0276 9.75889 22.8343 9.75889H19.1611C18.9871 9.75889 18.8325 9.89915 18.8325 10.0995V13.5061C18.8325 13.7065 18.9871 13.8468 19.1611 13.8468ZM8.91486 8.97738H12.588C12.762 8.97738 12.9167 8.81706 12.9167 8.63671V5.23012C12.9167 5.04977 12.7814 4.88946 12.588 4.88946H8.91486C8.74087 4.88946 8.58621 5.02973 8.58621 5.23012V8.63671C8.60554 8.81706 8.74087 8.97738 8.91486 8.97738ZM14.0767 8.97738H17.7498C17.9238 8.97738 18.0785 8.81706 18.0785 8.63671V5.23012C18.0785 5.04977 17.9432 4.88946 17.7498 4.88946H14.0767C13.9027 4.88946 13.748 5.02973 13.748 5.23012V8.63671C13.748 8.81706 13.8833 8.97738 14.0767 8.97738ZM19.1611 8.97738H22.8343C23.0083 8.97738 23.163 8.81706 23.163 8.63671V5.23012C23.163 5.04977 23.0083 4.88946 22.8343 4.88946H19.1611C18.9871 4.88946 18.8325 5.02973 18.8325 5.23012V8.63671C18.8325 8.81706 18.9871 8.97738 19.1611 8.97738ZM19.1611 4.08791H22.8343C23.0083 4.08791 23.163 3.94764 23.163 3.74725V0.340662C23.163 0.160313 23.0083 0 22.8343 0H19.1611C18.9871 0 18.8325 0.140274 18.8325 0.340662V3.74725C18.8325 3.9276 18.9871 4.08791 19.1611 4.08791ZM24.2842 13.8468H27.9574C28.1314 13.8468 28.2861 13.7065 28.2861 13.5061V10.0995C28.2861 9.91919 28.1508 9.75889 27.9574 9.75889H24.2842C24.1102 9.75889 23.9556 9.89915 23.9556 10.0995V13.5061C23.9749 13.7065 24.1102 13.8468 24.2842 13.8468Z" fill="#969696"/>
</svg>
