<svg width="88" height="33" viewBox="0 0 88 33" fill="none" xmlns="http://www.w3.org/2000/svg">
<path d="M6.6392 10.3667C6.51849 10.3667 6.39777 10.2488 6.51849 10.1308L7.36348 8.9511C7.48419 8.83313 7.60491 8.71516 7.84633 8.71516H23.0562C23.1769 8.71516 23.2976 8.83313 23.1769 8.9511L22.4526 10.0128C22.3319 10.1308 22.2112 10.2488 21.9698 10.2488L6.6392 10.3667ZM0.241393 14.1418C0.12068 14.1418 -3.36096e-05 14.0238 0.12068 13.9058L0.965674 12.7261C1.08639 12.6082 1.2071 12.4902 1.44853 12.4902H20.8834C21.0041 12.4902 21.1248 12.6082 21.1248 12.7261L20.7627 13.9058C20.7627 14.0238 20.5212 14.1418 20.4005 14.1418H0.241393ZM10.502 18.0348C10.3813 18.0348 10.2606 17.9168 10.3813 17.7988L10.9849 16.7371C11.1056 16.6191 11.2263 16.5012 11.4677 16.5012H19.9177C20.0384 16.5012 20.1591 16.6191 20.1591 16.7371L20.0384 17.6809C20.0384 17.7988 19.9177 17.9168 19.797 17.9168L10.502 18.0348ZM54.6831 9.54095L47.561 11.3105C46.9575 11.4285 46.8367 11.5464 46.3539 10.8386C45.7503 10.1308 45.2675 9.65892 44.3018 9.30501C41.6461 8.00734 38.9904 8.36125 36.5761 9.89486C33.679 11.6644 32.2304 14.3777 32.2304 17.7988C32.2304 21.102 34.6447 23.8153 38.0247 24.2872C40.9218 24.6411 43.336 23.6973 45.2675 21.5739C45.6296 21.102 45.9917 20.6301 46.4746 20.0403H38.2661C37.4211 20.0403 37.1797 19.4504 37.4211 18.7426C38.0247 17.4449 38.9904 15.3215 39.5939 14.2597C39.7146 14.0238 40.0768 13.5519 40.6804 13.5519H56.1317C56.0109 14.7316 56.0109 15.7934 55.8902 16.973C55.4074 19.9223 54.321 22.7536 52.3895 25.113C49.3717 29.006 45.3882 31.4833 40.3182 32.1912C36.0933 32.781 32.2304 31.9552 28.8505 29.4778C25.7119 27.1185 23.9012 24.0512 23.4184 20.2762C22.8148 15.7933 24.2633 11.6644 27.0398 8.12531C30.0576 4.23231 34.0411 1.75494 38.9904 0.929155C42.9739 0.221336 46.8367 0.693214 50.2167 2.93464C52.5103 4.35028 54.0795 6.35576 55.166 8.83313C55.2867 9.30501 55.166 9.42298 54.6831 9.54095Z" fill="#969696"/>
<path d="M68.6859 32.5442C64.823 32.4262 61.3223 31.3645 58.3045 28.8871C55.7695 26.7637 54.2003 24.0504 53.7174 20.8652C52.9931 16.1464 54.321 12.0174 57.2181 8.36038C60.3566 4.34941 64.0988 2.34392 69.1687 1.40016C73.5144 0.692344 77.6186 1.04625 81.24 3.52362C84.62 5.76505 86.6721 8.83226 87.2757 12.8432C88 18.5058 86.31 22.9886 82.4472 26.8816C79.6708 29.7129 76.1701 31.3645 72.3073 32.1903C70.9794 32.4262 69.7723 32.4262 68.6859 32.5442ZM78.8258 15.7925C78.8258 15.2026 78.8258 14.8487 78.7051 14.3768C77.9808 10.2479 74.118 7.8885 70.0137 8.83226C66.0302 9.65805 63.4952 12.1354 62.5295 16.0284C61.8052 19.2136 63.3745 22.5168 66.3923 23.9324C68.6859 24.8762 71.1001 24.7582 73.273 23.6965C76.7737 22.0449 78.5843 19.3316 78.8258 15.7925Z" fill="#969696"/>
</svg>
